<svg version="1.1" id="Layer_1" xmlns="http://www.w3.org/2000/svg" xmlns:xlink="http://www.w3.org/1999/xlink" x="0px" y="0px"
	 width="100%" viewBox="0 0 370 109" enable-background="new 0 0 370 109" xml:space="preserve">
<path fill="#FEFDFD" opacity="1.000000" stroke="none" 
	d="
M244.000000,110.000000 
	C162.666687,110.000000 81.833374,110.000000 1.000043,110.000000 
	C1.000029,73.666695 1.000029,37.333389 1.000014,1.000063 
	C124.333275,1.000042 247.666550,1.000042 370.999878,1.000021 
	C370.999908,37.333267 370.999908,73.666534 370.999939,109.999901 
	C328.833344,110.000000 286.666656,110.000000 244.000000,110.000000 
M326.037842,72.514763 
	C325.804382,72.274498 325.570892,72.034241 325.337433,71.793983 
	C325.209534,72.191818 325.081635,72.589653 324.485962,72.987045 
	C324.485962,72.987045 324.018311,72.975624 323.729584,72.402878 
	C322.822968,71.942299 321.916321,71.481720 320.500763,71.011124 
	C320.331085,71.013382 320.161407,71.015640 319.548096,71.208588 
	C319.270020,71.398621 319.084961,71.655617 318.470490,71.787491 
	C317.978607,71.528084 317.486694,71.268684 316.283630,70.984337 
	C315.523743,71.650993 314.763885,72.317657 313.378693,73.224289 
	C313.584900,74.147141 313.791107,75.069992 314.115173,76.681267 
	C314.411316,77.045280 314.859375,77.770866 314.981079,77.719727 
	C317.244080,76.768875 319.468567,75.662292 321.683716,77.809464 
	C321.845947,75.021179 328.562744,79.606354 326.067261,73.466789 
	C326.067261,73.466789 326.040955,73.056793 326.037842,72.514763 
M284.398773,64.011436 
	C283.933105,64.003906 283.467468,63.996384 282.547943,63.461124 
	C277.266449,63.252354 278.881378,66.338913 279.863342,69.768288 
	C277.094330,71.126839 274.325348,72.485390 271.167480,74.034714 
	C270.917816,73.378548 270.442383,72.129036 269.829346,70.517982 
	C272.705750,69.820290 275.053955,69.250717 277.879730,68.565308 
	C277.825012,67.324089 277.758179,65.808212 277.625305,62.795292 
	C274.801971,64.180161 272.974823,65.076385 271.007141,65.426292 
	C270.730927,64.977577 270.454742,64.528862 269.388794,64.042122 
	C268.862000,64.056923 268.335205,64.071724 267.259033,64.552536 
	C267.190552,66.000298 267.122070,67.448051 267.017151,69.720131 
	C267.345978,71.481667 267.674805,73.243202 268.000000,75.000000 
	C268.000000,75.000000 267.995270,74.996368 267.790009,75.518028 
	C267.525787,76.011269 267.261597,76.504509 266.709442,77.106377 
	C266.807129,77.071907 266.904785,77.037445 267.737366,77.006828 
	C270.011444,76.882576 272.390900,76.266792 274.539642,76.727325 
	C280.696167,78.046822 284.256165,75.046753 283.388519,68.929565 
	C283.388519,68.929565 283.806519,68.857117 284.474823,69.023651 
	C285.658722,69.024788 286.842621,69.025932 288.707916,69.020828 
	C289.910980,69.225830 291.114014,69.430832 292.041138,69.588814 
	C291.757141,68.295578 291.719604,66.937950 291.139374,65.877151 
	C290.713684,65.098907 289.576416,64.709900 288.031891,64.022835 
	C287.053284,64.034767 286.074677,64.046700 284.398773,64.011436 
M301.587646,71.392517 
	C300.936340,71.343521 300.285034,71.294533 299.633728,71.245537 
	C299.574036,71.475159 299.514343,71.704773 299.454651,71.934387 
	C300.220886,72.301720 300.987152,72.669044 301.916718,73.690445 
	C301.897278,74.138901 301.877869,74.587357 301.081787,75.008369 
	C300.285034,74.859558 299.233154,74.984398 298.732666,74.517799 
	C295.324432,71.340309 289.730011,70.517586 284.532806,73.154114 
	C291.375427,75.199066 285.452545,80.105423 287.601349,83.646027 
	C289.642273,83.270653 291.664520,82.898712 293.691833,82.525841 
	C294.158203,80.140862 294.567078,78.050041 294.996643,76.002869 
	C294.996643,76.002869 294.958252,75.971062 295.650146,76.106606 
	C297.796600,76.389427 299.943085,76.672249 302.715393,77.013649 
	C303.318573,76.945160 303.921783,76.876671 304.664429,76.792351 
	C304.027710,76.099419 303.528137,75.555763 303.585022,74.875954 
	C303.993317,74.165451 304.401611,73.454941 304.809875,72.744423 
	C303.853821,72.443390 302.897797,72.142357 301.587646,71.392517 
M295.900818,68.344925 
	C296.258942,68.561478 296.617065,68.778038 297.673920,69.082779 
	C299.118774,69.048157 300.563629,69.013535 302.720215,69.039200 
	C303.559784,68.710716 304.399323,68.382240 305.612946,68.043068 
	C305.612946,68.043068 305.985321,68.006584 306.647614,68.289391 
	C307.782928,68.573967 308.918274,68.858543 310.436920,69.608643 
	C311.145752,69.515015 311.854553,69.421394 312.563385,69.327782 
	C312.068298,68.888779 311.573242,68.449776 311.068481,67.274719 
	C311.190125,66.246437 311.311768,65.218155 311.444733,64.094261 
	C308.207397,64.094261 305.192535,64.094261 301.547058,64.067932 
	C300.014893,64.098915 298.482727,64.129898 296.565613,64.080460 
	C296.565613,64.080460 296.172394,64.088066 295.399017,64.061737 
	C294.614594,64.778175 293.830170,65.494621 293.045746,66.211060 
	C293.930969,66.818398 294.816162,67.425743 295.900818,68.344925 
M283.389984,79.782761 
	C280.831818,80.353394 280.833771,80.543892 283.686249,84.752930 
	C283.806580,82.937508 283.903900,81.469292 284.373230,79.983238 
	C284.248688,79.988594 284.124146,79.993942 283.389984,79.782761 
M275.871552,81.316269 
	C273.601410,80.888931 271.331268,80.461594 268.390198,79.944794 
	C263.319824,79.553246 267.132812,82.766884 267.253021,84.629356 
	C267.855438,83.684509 268.457855,82.739655 269.628693,82.112755 
	C271.097931,82.776527 272.567169,83.440292 274.436218,84.616730 
	C275.154846,84.553947 275.873505,84.491165 276.592133,84.428383 
	C276.388855,83.616951 276.185547,82.805519 275.871552,81.316269 
M179.638504,84.612862 
	C180.874695,82.276505 182.187225,82.487457 184.441086,83.722038 
	C191.041107,87.337288 197.887512,85.009636 200.933456,78.515419 
	C198.573257,75.853340 196.544235,77.357567 194.556168,79.045418 
	C191.915939,81.286949 189.417984,82.165039 187.138977,78.163086 
	C192.076767,76.426147 196.953217,74.710785 202.109787,72.896889 
	C201.660156,71.818733 201.392578,71.089287 201.059113,70.391319 
	C198.395615,64.816483 194.040680,62.696632 188.086395,64.060959 
	C182.918427,65.245110 180.088913,69.341331 180.051254,75.214020 
	C180.038803,77.155525 179.363464,79.092766 178.582809,80.474144 
	C176.946152,78.620361 175.309509,76.766571 173.727753,74.974960 
	C179.447815,68.616585 179.781433,60.742943 173.938385,58.420521 
	C169.056244,56.480026 163.061707,56.894947 157.604858,57.167896 
	C156.305771,57.232868 154.278870,60.837936 154.151184,62.911057 
	C153.732819,69.704353 154.023773,76.542137 154.086685,83.362404 
	C154.090698,83.798714 154.473907,84.231522 154.796799,84.909775 
	C156.190643,84.763489 157.591949,84.616409 159.033798,84.465080 
	C159.185806,81.598648 159.315598,79.151268 159.448975,76.636284 
	C164.774231,75.437408 169.235962,75.591560 171.699753,81.199364 
	C173.113724,84.417702 175.581955,85.553528 179.638504,84.612862 
M117.066025,13.174461 
	C97.304726,10.826881 77.554390,10.478944 57.866898,13.820675 
	C49.378788,15.261436 45.827995,19.599743 45.809166,28.166384 
	C45.769260,46.318184 45.770378,64.470161 45.799393,82.621994 
	C45.813164,91.236259 49.361000,95.738556 57.732319,97.106468 
	C78.261894,100.461082 98.843208,100.487816 119.380875,97.189102 
	C128.423279,95.736740 131.904083,91.344627 131.912689,82.177254 
	C131.928818,65.024567 131.918060,47.871861 131.916916,30.719160 
	C131.916138,18.995972 129.168304,15.589290 117.066025,13.174461 
M258.311401,95.845428 
	C259.677795,93.429214 262.066406,91.076973 262.222382,88.585007 
	C262.726685,80.526360 262.410522,72.416374 262.410522,63.963047 
	C260.784149,64.136154 259.407288,64.282700 257.885345,64.444687 
	C257.885345,67.905418 257.988831,70.904610 257.858032,73.893547 
	C257.708893,77.302017 256.043152,79.780426 252.447495,79.858871 
	C248.544891,79.944023 246.858566,77.396843 246.780136,73.717201 
	C246.713776,70.603836 246.766464,67.487938 246.766464,64.285095 
	C244.844772,64.285095 243.590546,64.285095 242.371902,64.285095 
	C240.137787,80.769386 244.165237,86.031395 257.785004,84.292053 
	C258.167267,89.324089 255.878403,92.552025 251.362610,94.304207 
	C246.900940,96.035393 242.028656,94.308907 238.921921,90.499641 
	C237.767899,89.084633 235.859680,88.284698 233.576599,86.707817 
	C233.193863,98.080215 249.342178,103.704666 258.311401,95.845428 
M163.947205,42.335880 
	C169.325500,46.066589 168.990417,37.950542 173.049423,38.103405 
	C173.049423,43.045746 173.049423,47.961334 173.049423,52.919170 
	C174.844376,52.919170 176.245285,52.919170 178.078217,52.919170 
	C178.078217,44.533428 178.146301,36.426968 177.995056,28.324604 
	C177.975372,27.270113 176.985001,25.569471 176.157516,25.372450 
	C175.245056,25.155191 173.677536,26.063135 172.962189,26.942200 
	C170.609711,29.833149 168.513931,32.932991 166.045914,36.329109 
	C163.683380,33.079357 161.867569,30.308393 159.749359,27.791985 
	C158.798676,26.662598 157.242905,26.042553 155.961731,25.191387 
	C155.307297,26.553783 154.118500,27.904112 154.087418,29.280582 
	C153.918655,36.752876 154.026184,44.231697 154.078720,51.707981 
	C154.081787,52.146194 154.435486,52.581940 154.732819,53.263744 
	C156.141830,53.128853 157.542267,52.994785 159.531860,52.804314 
	C159.531860,47.705654 159.531860,42.918446 159.531860,37.004772 
	C161.397049,39.278763 162.434799,40.543968 163.947205,42.335880 
M248.670670,51.655388 
	C248.670670,43.057648 248.670670,34.459908 248.670670,25.557173 
	C246.864975,25.557173 245.483719,25.557173 243.893173,25.557173 
	C243.692337,28.320009 243.504486,30.904354 243.304184,33.660141 
	C241.395325,33.301601 239.815445,32.867943 238.209915,32.727608 
	C232.111923,32.194588 227.325089,36.089214 226.779877,41.926258 
	C226.196594,48.170982 230.035721,53.478771 236.110611,53.759716 
	C240.223160,53.949905 244.391037,52.943233 248.670670,51.655388 
M216.787598,70.627762 
	C214.806946,78.228165 218.804382,84.707321 225.939972,84.981445 
	C229.728455,85.126968 233.543900,84.570740 237.539337,84.319183 
	C237.539337,77.702606 237.539337,71.003792 237.539337,64.281509 
	C234.814529,64.281509 232.380127,64.630829 230.084991,64.213715 
	C224.047180,63.116409 220.718872,64.430962 216.787598,70.627762 
M271.503296,53.866714 
	C274.657043,53.437462 277.810791,53.008209 281.031921,52.569786 
	C281.031921,46.108593 281.031921,39.688602 281.031921,32.997433 
	C278.615204,33.108223 276.382324,33.587112 274.286255,33.239975 
	C266.218994,31.903925 260.832458,34.835251 259.861511,41.390293 
	C258.848114,48.231842 262.730896,52.745636 271.503296,53.866714 
M189.814728,53.911915 
	C191.751999,53.551044 193.845047,53.539787 195.595612,52.759850 
	C199.836945,50.870174 201.851486,47.116062 201.655121,42.705730 
	C201.450531,38.110332 199.114166,34.558514 194.448120,32.895485 
	C189.970078,31.299454 186.192749,32.507748 183.144119,35.808918 
	C177.239410,42.202682 181.072678,52.492344 189.814728,53.911915 
M203.957230,52.264595 
	C205.491852,52.583817 207.026474,52.903038 209.048752,53.323692 
	C209.048752,48.747269 208.860931,45.097897 209.105194,41.477676 
	C209.320129,38.291901 211.481644,36.928082 214.577469,36.945160 
	C217.702133,36.962395 219.074234,38.726513 219.152847,41.653011 
	C219.241989,44.972099 219.216110,48.294216 219.294296,51.613739 
	C219.304642,52.052498 219.633911,52.483746 219.941254,53.219654 
	C221.317474,53.111492 222.700821,53.002766 224.220047,52.883366 
	C224.220047,48.499313 224.386490,44.516994 224.178207,40.554367 
	C223.913437,35.516602 221.295197,32.733101 216.413315,32.644577 
	C212.345230,32.570805 208.265259,33.153046 203.870773,33.467625 
	C203.870773,39.392296 203.870773,45.349159 203.957230,52.264595 
M216.333725,83.975403 
	C215.513779,82.622879 214.582764,80.050705 213.891724,80.113647 
	C209.011139,80.558098 208.876450,77.613594 208.921753,74.145996 
	C208.998795,68.247093 208.942963,62.346458 208.942963,56.453449 
	C206.577209,56.453449 204.988693,56.453449 202.964813,56.453449 
	C202.964813,62.635151 202.951141,68.570129 202.968231,74.505028 
	C202.990082,82.087723 208.158783,86.102531 216.333725,83.975403 
M290.100891,33.619843 
	C290.100891,31.219082 290.100891,28.818323 290.100891,26.417562 
	C289.698578,26.233690 289.296265,26.049818 288.893951,25.865944 
	C287.675171,27.384834 285.532867,28.831272 285.406982,30.435905 
	C284.993408,35.707905 284.911926,41.078022 285.447876,46.334484 
	C286.142853,53.151245 293.047913,55.675373 298.865997,51.203968 
	C297.703156,50.239880 296.478882,48.430302 295.521576,48.561943 
	C289.905823,49.334137 290.093658,45.694176 290.097168,42.038509 
	C290.099548,39.549740 290.099884,37.060974 290.100891,33.619843 
M252.292114,42.533421 
	C252.292114,45.977478 252.292114,49.421535 252.292114,52.997414 
	C254.238983,52.997414 255.624634,52.997414 257.093811,52.997414 
	C257.093811,46.584412 257.093811,40.488113 257.093811,34.006062 
	C255.445404,34.096893 254.059174,34.173283 252.292130,34.270657 
	C252.292130,36.968594 252.292130,39.275009 252.292114,42.533421 
M251.879089,28.522781 
	C253.189316,29.358496 254.423874,30.467472 255.855728,30.863993 
	C256.287231,30.983482 257.843445,29.119442 257.836731,28.171417 
	C257.829773,27.181818 256.303253,25.270826 255.887970,25.385206 
	C254.453186,25.780394 253.213196,26.882788 251.879089,28.522781 
M307.568329,75.933807 
	C308.652557,76.684044 309.736816,77.434280 312.016571,79.011757 
	C311.789612,75.396263 311.655334,73.257072 311.521057,71.117882 
	C310.988403,70.985428 310.455719,70.852974 309.923065,70.720520 
	C309.022797,72.233223 308.122498,73.745934 307.568329,75.933807 
M284.351654,76.063972 
	C283.764069,76.413368 283.176483,76.762756 282.588898,77.112152 
	C283.093719,77.382301 283.598572,77.652451 284.103394,77.922615 
	C284.403015,77.354507 284.702637,76.786407 284.351654,76.063972 
z"/>
<path fill="#97184F" opacity="1.000000" stroke="none" 
	d="
M117.488388,13.260663 
	C129.168304,15.589290 131.916138,18.995972 131.916916,30.719160 
	C131.918060,47.871861 131.928818,65.024567 131.912689,82.177254 
	C131.904083,91.344627 128.423279,95.736740 119.380875,97.189102 
	C98.843208,100.487816 78.261894,100.461082 57.732319,97.106468 
	C49.361000,95.738556 45.813164,91.236259 45.799393,82.621994 
	C45.770378,64.470161 45.769260,46.318184 45.809166,28.166384 
	C45.827995,19.599743 49.378788,15.261436 57.866898,13.820675 
	C77.554390,10.478944 97.304726,10.826881 117.488388,13.260663 
M83.202431,61.334885 
	C84.546288,54.768940 89.594025,53.636547 95.139038,53.582989 
	C95.139038,49.929138 95.139038,46.652596 95.139038,43.425182 
	C82.109764,41.330162 72.931908,47.804073 71.811584,60.468151 
	C71.116753,68.322395 71.682640,76.288177 71.682640,84.274612 
	C82.435707,79.964272 83.066795,79.058403 83.068756,68.183929 
	C83.069122,66.187538 83.096458,64.191139 83.202431,61.334885 
M102.685173,55.130161 
	C105.369583,54.444180 109.639427,54.559990 110.462418,52.932640 
	C113.923042,46.089725 109.828995,41.079121 102.250725,42.470844 
	C100.702133,42.755238 98.211311,45.006512 98.351608,46.058029 
	C98.771362,49.204075 95.303856,54.232285 102.685173,55.130161 
M90.151886,35.807419 
	C92.399162,30.883738 91.382523,27.246056 87.284149,25.546196 
	C83.800758,24.101410 79.384552,25.909121 78.740715,29.774361 
	C78.373131,31.981173 79.202904,35.192841 80.726593,36.729076 
	C83.304932,39.328640 86.750481,38.828434 90.151886,35.807419 
z"/>
<path fill="#9A2857" opacity="1.000000" stroke="none" 
	d="
M258.023895,96.081718 
	C249.342178,103.704666 233.193863,98.080215 233.576599,86.707817 
	C235.859680,88.284698 237.767899,89.084633 238.921921,90.499641 
	C242.028656,94.308907 246.900940,96.035393 251.362610,94.304207 
	C255.878403,92.552025 258.167267,89.324089 257.785004,84.292053 
	C244.165237,86.031395 240.137787,80.769386 242.371902,64.285095 
	C243.590546,64.285095 244.844772,64.285095 246.766464,64.285095 
	C246.766464,67.487938 246.713776,70.603836 246.780136,73.717201 
	C246.858566,77.396843 248.544891,79.944023 252.447495,79.858871 
	C256.043152,79.780426 257.708893,77.302017 257.858032,73.893547 
	C257.988831,70.904610 257.885345,67.905418 257.885345,64.444687 
	C259.407288,64.282700 260.784149,64.136154 262.410522,63.963047 
	C262.410522,72.416374 262.726685,80.526360 262.222382,88.585007 
	C262.066406,91.076973 259.677795,93.429214 258.023895,96.081718 
z"/>
<path fill="#992657" opacity="1.000000" stroke="none" 
	d="
M178.983231,84.637787 
	C175.581955,85.553528 173.113724,84.417702 171.699753,81.199364 
	C169.235962,75.591560 164.774231,75.437408 159.448975,76.636284 
	C159.315598,79.151268 159.185806,81.598648 159.033798,84.465080 
	C157.591949,84.616409 156.190643,84.763489 154.796799,84.909775 
	C154.473907,84.231522 154.090698,83.798714 154.086685,83.362404 
	C154.023773,76.542137 153.732819,69.704353 154.151184,62.911057 
	C154.278870,60.837936 156.305771,57.232868 157.604858,57.167896 
	C163.061707,56.894947 169.056244,56.480026 173.938385,58.420521 
	C179.781433,60.742943 179.447815,68.616585 173.727753,74.974960 
	C175.309509,76.766571 176.946152,78.620361 178.786652,81.113678 
	C178.988068,82.714729 178.985641,83.676262 178.983231,84.637787 
M161.728745,61.630524 
	C156.749512,63.550789 160.152420,67.421783 159.125092,70.910316 
	C162.766922,70.910316 166.005936,71.455269 168.905716,70.699188 
	C170.558151,70.268349 172.531845,67.808846 172.719269,66.084412 
	C172.861130,64.779320 170.662964,62.561291 169.037140,61.896378 
	C167.180344,61.137005 164.803925,61.648209 161.728745,61.630524 
z"/>
<path fill="#972052" opacity="1.000000" stroke="none" 
	d="
M163.709869,42.072525 
	C162.434799,40.543968 161.397049,39.278763 159.531860,37.004772 
	C159.531860,42.918446 159.531860,47.705654 159.531860,52.804314 
	C157.542267,52.994785 156.141830,53.128853 154.732819,53.263744 
	C154.435486,52.581940 154.081787,52.146194 154.078720,51.707981 
	C154.026184,44.231697 153.918655,36.752876 154.087418,29.280582 
	C154.118500,27.904112 155.307297,26.553783 155.961731,25.191385 
	C157.242905,26.042553 158.798676,26.662598 159.749359,27.791985 
	C161.867569,30.308393 163.683380,33.079357 166.045914,36.329109 
	C168.513931,32.932991 170.609711,29.833149 172.962189,26.942200 
	C173.677536,26.063135 175.245056,25.155191 176.157516,25.372450 
	C176.985001,25.569471 177.975372,27.270113 177.995056,28.324604 
	C178.146301,36.426968 178.078217,44.533428 178.078217,52.919170 
	C176.245285,52.919170 174.844376,52.919170 173.049423,52.919170 
	C173.049423,47.961334 173.049423,43.045746 173.049423,38.103405 
	C168.990417,37.950542 169.325500,46.066589 163.709869,42.072525 
z"/>
<path fill="#9B2B59" opacity="1.000000" stroke="none" 
	d="
M248.602417,52.063629 
	C244.391037,52.943233 240.223160,53.949905 236.110611,53.759716 
	C230.035721,53.478771 226.196594,48.170982 226.779877,41.926258 
	C227.325089,36.089214 232.111923,32.194588 238.209915,32.727608 
	C239.815445,32.867943 241.395325,33.301601 243.304184,33.660141 
	C243.504486,30.904354 243.692337,28.320009 243.893173,25.557173 
	C245.483719,25.557173 246.864975,25.557173 248.670670,25.557173 
	C248.670670,34.459908 248.670670,43.057648 248.602417,52.063629 
M231.257172,45.023087 
	C232.607178,48.143993 234.989517,50.050850 238.316757,49.069996 
	C240.106873,48.542278 242.357086,46.776489 242.781708,45.147549 
	C243.275513,43.253281 242.645309,40.234692 241.307449,38.928726 
	C239.977203,37.630199 236.427094,36.785450 235.170486,37.653229 
	C233.226456,38.995720 232.404663,41.963268 231.257172,45.023087 
z"/>
<path fill="#9B2C5B" opacity="1.000000" stroke="none" 
	d="
M179.310867,84.625320 
	C178.985641,83.676262 178.988068,82.714729 178.990845,81.392578 
	C179.363464,79.092766 180.038803,77.155525 180.051254,75.214020 
	C180.088913,69.341331 182.918427,65.245110 188.086395,64.060959 
	C194.040680,62.696632 198.395615,64.816483 201.059113,70.391319 
	C201.392578,71.089287 201.660156,71.818733 202.109787,72.896889 
	C196.953217,74.710785 192.076767,76.426147 187.138977,78.163086 
	C189.417984,82.165039 191.915939,81.286949 194.556168,79.045418 
	C196.544235,77.357567 198.573257,75.853340 200.933456,78.515419 
	C197.887512,85.009636 191.041107,87.337288 184.441086,83.722038 
	C182.187225,82.487457 180.874695,82.276505 179.310867,84.625320 
M186.866318,69.238304 
	C186.155701,70.703537 185.445099,72.168762 184.734482,73.633995 
	C185.038879,73.933823 185.343277,74.233650 185.647675,74.533470 
	C189.067413,73.329552 192.487152,72.125626 196.201065,70.818138 
	C192.565033,67.330666 192.323288,67.283073 186.866318,69.238304 
z"/>
<path fill="#9A2958" opacity="1.000000" stroke="none" 
	d="
M216.926437,70.262436 
	C220.718872,64.430962 224.047180,63.116409 230.084991,64.213715 
	C232.380127,64.630829 234.814529,64.281509 237.539337,64.281509 
	C237.539337,71.003792 237.539337,77.702606 237.539337,84.319183 
	C233.543900,84.570740 229.728455,85.126968 225.939972,84.981445 
	C218.804382,84.707321 214.806946,78.228165 216.926437,70.262436 
M232.967743,75.228584 
	C232.267670,70.093033 229.341583,67.382057 225.464066,68.276558 
	C221.941605,69.089149 219.542847,72.919189 221.115494,76.304474 
	C221.940033,78.079399 224.117554,79.853508 226.021622,80.360687 
	C229.365784,81.251450 231.548691,79.014717 232.967743,75.228584 
z"/>
<path fill="#972253" opacity="1.000000" stroke="none" 
	d="
M271.075073,53.897591 
	C262.730896,52.745636 258.848114,48.231842 259.861511,41.390293 
	C260.832458,34.835251 266.218994,31.903925 274.286255,33.239975 
	C276.382324,33.587112 278.615204,33.108223 281.031921,32.997433 
	C281.031921,39.688602 281.031921,46.108593 281.031921,52.569786 
	C277.810791,53.008209 274.657043,53.437462 271.075073,53.897591 
M276.431610,41.974335 
	C275.413666,38.771736 273.293701,36.494438 269.898987,37.179012 
	C267.941010,37.573853 265.323700,39.280510 264.792023,40.962273 
	C264.180267,42.897289 264.928314,45.953892 266.246887,47.584312 
	C267.265228,48.843468 270.720428,49.663868 271.941956,48.882084 
	C273.980560,47.577335 275.099548,44.835758 276.431610,41.974335 
z"/>
<path fill="#9A2958" opacity="1.000000" stroke="none" 
	d="
M189.421432,53.847961 
	C181.072678,52.492344 177.239410,42.202682 183.144119,35.808918 
	C186.192749,32.507748 189.970078,31.299454 194.448120,32.895485 
	C199.114166,34.558514 201.450531,38.110332 201.655121,42.705730 
	C201.851486,47.116062 199.836945,50.870174 195.595612,52.759850 
	C193.845047,53.539787 191.751999,53.551044 189.421432,53.847961 
M194.975998,47.606895 
	C195.386047,45.197742 196.532684,42.586926 195.947693,40.450180 
	C195.556320,39.020660 192.593643,37.281822 190.982574,37.463512 
	C189.093307,37.676575 186.701584,39.482742 185.876831,41.233444 
	C185.177292,42.718353 185.765884,46.197117 186.906036,46.857616 
	C188.946014,48.039387 191.829971,47.764282 194.975998,47.606895 
z"/>
<path fill="#982454" opacity="1.000000" stroke="none" 
	d="
M203.914001,51.785309 
	C203.870773,45.349159 203.870773,39.392296 203.870773,33.467625 
	C208.265259,33.153046 212.345230,32.570805 216.413315,32.644577 
	C221.295197,32.733101 223.913437,35.516602 224.178207,40.554367 
	C224.386490,44.516994 224.220047,48.499313 224.220047,52.883366 
	C222.700821,53.002766 221.317474,53.111492 219.941254,53.219654 
	C219.633911,52.483746 219.304642,52.052498 219.294296,51.613739 
	C219.216110,48.294216 219.241989,44.972099 219.152847,41.653011 
	C219.074234,38.726513 217.702133,36.962395 214.577469,36.945160 
	C211.481644,36.928082 209.320129,38.291901 209.105194,41.477676 
	C208.860931,45.097897 209.048752,48.747269 209.048752,53.323692 
	C207.026474,52.903038 205.491852,52.583817 203.914001,51.785309 
z"/>
<path fill="#962353" opacity="1.000000" stroke="none" 
	d="
M215.976990,84.165512 
	C208.158783,86.102531 202.990082,82.087723 202.968231,74.505028 
	C202.951141,68.570129 202.964813,62.635151 202.964813,56.453449 
	C204.988693,56.453449 206.577209,56.453449 208.942963,56.453449 
	C208.942963,62.346458 208.998795,68.247093 208.921753,74.145996 
	C208.876450,77.613594 209.011139,80.558098 213.891724,80.113647 
	C214.582764,80.050705 215.513779,82.622879 215.976990,84.165512 
z"/>
<path fill="#992A59" opacity="1.000000" stroke="none" 
	d="
M290.101013,34.096024 
	C290.099884,37.060974 290.099548,39.549740 290.097168,42.038509 
	C290.093658,45.694176 289.905823,49.334137 295.521576,48.561943 
	C296.478882,48.430302 297.703156,50.239880 298.865997,51.203968 
	C293.047913,55.675373 286.142853,53.151245 285.447876,46.334484 
	C284.911926,41.078022 284.993408,35.707905 285.406982,30.435905 
	C285.532867,28.831272 287.675171,27.384834 288.893951,25.865944 
	C289.296265,26.049818 289.698578,26.233690 290.100891,26.417562 
	C290.100891,28.818323 290.100891,31.219082 290.101013,34.096024 
z"/>
<path fill="#F1E6ED" opacity="1.000000" stroke="none" 
	d="
M283.033386,69.161919 
	C284.256165,75.046753 280.696167,78.046822 274.539642,76.727325 
	C272.390900,76.266792 270.011444,76.882576 267.368683,77.003418 
	C267.000000,77.000000 266.997406,76.997757 266.997406,76.997757 
	C267.261597,76.504509 267.525787,76.011269 268.029938,75.207161 
	C268.181122,74.932442 268.092346,74.968597 268.003601,75.004745 
	C267.674805,73.243202 267.345978,71.481667 267.427216,69.371063 
	C268.940735,68.005539 270.044189,66.989075 271.147644,65.972618 
	C272.974823,65.076385 274.801971,64.180161 277.625305,62.795292 
	C277.758179,65.808212 277.825012,67.324089 277.879730,68.565308 
	C275.053955,69.250717 272.705750,69.820290 269.829346,70.517982 
	C270.442383,72.129036 270.917816,73.378548 271.167480,74.034714 
	C274.325348,72.485390 277.094330,71.126839 279.889893,69.417038 
	C279.916443,69.065796 279.983307,69.012421 280.363220,69.052704 
	C281.506561,69.115974 282.269958,69.138947 283.033386,69.161919 
M281.487244,72.580032 
	C281.487244,72.580032 281.422180,72.466873 281.487244,72.580032 
z"/>
<path fill="#9B2D5B" opacity="1.000000" stroke="none" 
	d="
M252.292114,42.057419 
	C252.292130,39.275009 252.292130,36.968594 252.292130,34.270657 
	C254.059174,34.173283 255.445404,34.096893 257.093811,34.006062 
	C257.093811,40.488113 257.093811,46.584412 257.093811,52.997414 
	C255.624634,52.997414 254.238983,52.997414 252.292114,52.997414 
	C252.292114,49.421535 252.292114,45.977478 252.292114,42.057419 
z"/>
<path fill="#F1E6ED" opacity="1.000000" stroke="none" 
	d="
M302.089539,76.955070 
	C299.943085,76.672249 297.796600,76.389427 295.340881,75.700737 
	C294.907654,74.716530 294.783722,74.138191 294.659790,73.559860 
	C294.404175,73.640594 294.148560,73.721336 293.892975,73.802071 
	C294.253937,74.521126 294.614929,75.240181 294.975891,75.959229 
	C294.567078,78.050041 294.158203,80.140862 293.691833,82.525841 
	C291.664520,82.898712 289.642273,83.270653 287.601349,83.646027 
	C285.452545,80.105423 291.375427,75.199066 284.532806,73.154114 
	C289.730011,70.517586 295.324432,71.340309 298.732666,74.517799 
	C299.233154,74.984398 300.285034,74.859558 301.546326,74.968826 
	C302.010834,74.929276 302.196716,74.926491 302.149048,75.263268 
	C302.097443,76.051720 302.093475,76.503395 302.089539,76.955070 
M290.501892,80.392067 
	C295.521179,78.749733 289.706665,77.499847 290.149536,76.956032 
	C290.149536,77.285820 290.149536,78.557472 290.501892,80.392067 
z"/>
<path fill="#ECDCE6" opacity="1.000000" stroke="none" 
	d="
M321.009705,71.021149 
	C321.916321,71.481720 322.822968,71.942299 323.885010,72.962463 
	C324.730011,73.639862 325.419617,73.757675 326.109192,73.875481 
	C328.562744,79.606354 321.845947,75.021179 321.683716,77.809464 
	C319.468567,75.662292 317.244080,76.768875 314.981079,77.719727 
	C314.859375,77.770866 314.411316,77.045280 314.057007,76.340897 
	C313.998810,76.000534 313.988831,75.996010 314.318481,75.933044 
	C315.397797,74.946587 316.147491,74.023094 316.926147,73.071518 
	C316.955109,73.043449 317.012695,72.986961 317.310059,72.969269 
	C318.069214,72.627579 318.531067,72.303589 318.992889,71.979584 
	C319.084961,71.655617 319.270020,71.398621 319.774902,71.414078 
	C320.105743,72.138359 320.209808,72.657150 320.313843,73.175941 
	C320.489929,73.168076 320.665985,73.160210 320.842072,73.152351 
	C320.897949,72.441948 320.953827,71.731544 321.009705,71.021149 
z"/>
<path fill="#B67B95" opacity="1.000000" stroke="none" 
	d="
M302.177673,64.094261 
	C305.192535,64.094261 308.207397,64.094261 311.444733,64.094261 
	C311.311768,65.218155 311.190125,66.246437 310.820129,67.747925 
	C310.399048,68.528465 310.226318,68.835793 310.053589,69.143120 
	C308.918274,68.858543 307.782928,68.573967 306.255310,67.940254 
	C305.654938,67.745331 305.446930,67.899544 305.238892,68.053757 
	C304.399323,68.382240 303.559784,68.710716 302.351715,68.599808 
	C302.048035,66.805031 302.112854,65.449646 302.177673,64.094261 
z"/>
<path fill="#9C3560" opacity="1.000000" stroke="none" 
	d="
M251.889069,28.119350 
	C253.213196,26.882788 254.453186,25.780394 255.887970,25.385206 
	C256.303253,25.270826 257.829773,27.181818 257.836731,28.171417 
	C257.843445,29.119442 256.287231,30.983482 255.855728,30.863993 
	C254.423874,30.467472 253.189316,29.358496 251.889069,28.119350 
z"/>
<path fill="#F1E6ED" opacity="1.000000" stroke="none" 
	d="
M307.395264,75.596222 
	C308.122498,73.745934 309.022797,72.233223 309.923065,70.720520 
	C310.455719,70.852974 310.988403,70.985428 311.521057,71.117882 
	C311.655334,73.257072 311.789612,75.396263 312.016571,79.011757 
	C309.736816,77.434280 308.652557,76.684044 307.395264,75.596222 
z"/>
<path fill="#F1E6ED" opacity="1.000000" stroke="none" 
	d="
M301.862366,64.081100 
	C302.112854,65.449646 302.048035,66.805031 301.995850,68.569664 
	C300.563629,69.013535 299.118774,69.048157 297.458008,68.740463 
	C297.571167,67.944977 298.247162,67.409805 298.163147,67.054230 
	C297.925934,66.050331 297.376801,65.120117 296.950562,64.160873 
	C298.482727,64.129898 300.014893,64.098915 301.862366,64.081100 
z"/>
<path fill="#F1E6ED" opacity="1.000000" stroke="none" 
	d="
M288.756256,64.147408 
	C289.576416,64.709900 290.713684,65.098907 291.139374,65.877151 
	C291.719604,66.937950 291.757141,68.295578 292.041138,69.588814 
	C291.114014,69.430832 289.910980,69.225830 288.227478,68.792297 
	C287.006226,68.073700 286.265442,67.583626 285.436188,66.835312 
	C285.370483,66.213509 285.393219,65.849945 285.697205,65.385612 
	C286.904388,64.905701 287.830322,64.526550 288.756256,64.147408 
z"/>
<path fill="#BE8FA5" opacity="1.000000" stroke="none" 
	d="
M274.036407,84.104065 
	C272.567169,83.440292 271.097931,82.776527 269.347534,81.661537 
	C269.064606,80.818298 269.062866,80.426285 269.061127,80.034264 
	C271.331268,80.461594 273.601410,80.888931 275.665833,81.794022 
	C274.985565,82.882530 274.510986,83.493294 274.036407,84.104065 
z"/>
<path fill="#F1E6ED" opacity="1.000000" stroke="none" 
	d="
M279.881409,69.090363 
	C278.881378,66.338913 277.266449,63.252354 282.771942,64.085579 
	C282.987244,65.191185 282.978546,65.672340 282.518951,66.103638 
	C281.770569,66.108330 281.473114,66.162872 281.184967,66.230179 
	C281.194244,66.242950 281.122009,66.277946 281.137207,66.606140 
	C280.762665,67.627029 280.372986,68.319725 279.983307,69.012421 
	C279.983307,69.012421 279.916443,69.065796 279.881409,69.090363 
z"/>
<path fill="#F1E6ED" opacity="1.000000" stroke="none" 
	d="
M268.725647,79.989532 
	C269.062866,80.426285 269.064606,80.818298 269.063293,81.502563 
	C268.457855,82.739655 267.855438,83.684509 267.253021,84.629356 
	C267.132812,82.766884 263.319824,79.553246 268.725647,79.989532 
z"/>
<path fill="#CFA6BB" opacity="1.000000" stroke="none" 
	d="
M284.001221,80.001083 
	C283.903900,81.469292 283.806580,82.937508 283.686249,84.752930 
	C280.833771,80.543892 280.831818,80.353394 283.695007,79.891380 
	C284.000000,80.000000 284.001221,80.001083 284.001221,80.001083 
z"/>
<path fill="#F1E6ED" opacity="1.000000" stroke="none" 
	d="
M295.701416,68.033081 
	C294.816162,67.425743 293.930969,66.818398 293.045746,66.211060 
	C293.830170,65.494621 294.614594,64.778175 295.729248,64.468376 
	C295.940094,65.927704 295.820740,66.980392 295.701416,68.033081 
z"/>
<path fill="#AC6C87" opacity="1.000000" stroke="none" 
	d="
M271.077393,65.699455 
	C270.044189,66.989075 268.940735,68.005539 267.445435,68.958908 
	C267.122070,67.448051 267.190552,66.000298 267.582886,64.692810 
	C268.164551,65.835289 268.422394,66.837486 268.680206,67.839684 
	C268.996399,67.787704 269.312561,67.735733 269.628754,67.683762 
	C269.812012,66.482552 269.995300,65.281349 270.178558,64.080139 
	C270.454742,64.528862 270.730927,64.977577 271.077393,65.699455 
z"/>
<path fill="#B47891" opacity="1.000000" stroke="none" 
	d="
M280.363220,69.052704 
	C280.372986,68.319725 280.762665,67.627029 281.210327,66.641022 
	C281.268250,66.347710 281.175690,66.217407 281.175690,66.217407 
	C281.473114,66.162872 281.770569,66.108330 282.676819,66.268921 
	C283.816071,65.954468 284.346588,65.424873 285.014465,65.040588 
	C285.151855,65.185913 285.415924,65.486374 285.415955,65.486374 
	C285.393219,65.849945 285.370483,66.213509 285.282043,67.108139 
	C284.746399,68.045174 284.276459,68.451149 283.806519,68.857117 
	C283.806519,68.857117 283.388519,68.929565 283.210938,69.045746 
	C282.269958,69.138947 281.506561,69.115974 280.363220,69.052704 
z"/>
<path fill="#9F5774" opacity="1.000000" stroke="none" 
	d="
M301.934631,74.982544 
	C301.877869,74.587357 301.897278,74.138901 301.904205,73.068115 
	C301.908386,72.244293 301.925049,72.042809 301.941742,71.841331 
	C302.897797,72.142357 303.853821,72.443390 304.809875,72.744431 
	C304.401611,73.454941 303.993317,74.165451 303.099182,74.919189 
	C302.613373,74.962433 302.196716,74.926491 302.196716,74.926491 
	C302.196716,74.926491 302.010834,74.929276 301.934631,74.982544 
M303.352295,73.499969 
	C303.527008,73.529083 303.701752,73.558197 303.876465,73.587303 
	C303.800903,73.502296 303.725342,73.417290 303.352295,73.499969 
z"/>
<path fill="#944768" opacity="1.000000" stroke="none" 
	d="
M295.801117,68.189003 
	C295.820740,66.980392 295.940094,65.927704 296.115906,64.481537 
	C296.172394,64.088066 296.565613,64.080460 296.758087,64.120667 
	C297.376801,65.120117 297.925934,66.050331 298.163147,67.054230 
	C298.247162,67.409805 297.571167,67.944977 297.108643,68.696381 
	C296.617065,68.778038 296.258942,68.561478 295.801117,68.189003 
z"/>
<path fill="#F1E6ED" opacity="1.000000" stroke="none" 
	d="
M274.236328,84.360397 
	C274.510986,83.493294 274.985565,82.882530 275.721191,82.132927 
	C276.185547,82.805519 276.388855,83.616951 276.592133,84.428383 
	C275.873505,84.491165 275.154846,84.553947 274.236328,84.360397 
z"/>
<path fill="#F6EFF3" opacity="1.000000" stroke="none" 
	d="
M269.783691,64.061127 
	C269.995300,65.281349 269.812012,66.482552 269.628754,67.683762 
	C269.312561,67.735733 268.996399,67.787704 268.680206,67.839684 
	C268.422394,66.837486 268.164551,65.835289 267.857544,64.459808 
	C268.335205,64.071724 268.862000,64.056923 269.783691,64.061127 
z"/>
<path fill="#F1E6ED" opacity="1.000000" stroke="none" 
	d="
M284.676941,76.141136 
	C284.702637,76.786407 284.403015,77.354507 284.103394,77.922607 
	C283.598572,77.652451 283.093719,77.382301 282.588898,77.112152 
	C283.176483,76.762756 283.764069,76.413368 284.676941,76.141136 
z"/>
<path fill="#ECDCE6" opacity="1.000000" stroke="none" 
	d="
M284.140686,68.940384 
	C284.276459,68.451149 284.746399,68.045174 285.370483,67.366379 
	C286.265442,67.583626 287.006226,68.073700 287.886780,68.795418 
	C286.842621,69.025932 285.658722,69.024788 284.140686,68.940384 
z"/>
<path fill="#ECDCE6" opacity="1.000000" stroke="none" 
	d="
M314.003998,72.984314 
	C314.763885,72.317657 315.523743,71.650993 316.642578,71.326408 
	C317.005249,72.107971 317.008972,72.547470 317.012695,72.986961 
	C317.012695,72.986961 316.955109,73.043449 316.569550,73.058495 
	C315.464569,73.046547 314.745148,73.019554 314.017151,72.997604 
	C314.008606,73.002632 314.003998,72.984314 314.003998,72.984314 
z"/>
<path fill="#F1E6ED" opacity="1.000000" stroke="none" 
	d="
M310.245239,69.375885 
	C310.226318,68.835793 310.399048,68.528465 310.824951,68.115959 
	C311.573242,68.449776 312.068298,68.888779 312.563385,69.327774 
	C311.854553,69.421394 311.145752,69.515015 310.245239,69.375885 
z"/>
<path fill="#F1E6ED" opacity="1.000000" stroke="none" 
	d="
M301.764709,71.616928 
	C301.925049,72.042809 301.908386,72.244293 301.822540,72.741074 
	C300.987152,72.669044 300.220886,72.301720 299.454651,71.934387 
	C299.514343,71.704773 299.574036,71.475159 299.633728,71.245537 
	C300.285034,71.294533 300.936340,71.343521 301.764709,71.616928 
z"/>
<path fill="#B47891" opacity="1.000000" stroke="none" 
	d="
M288.394073,64.085114 
	C287.830322,64.526550 286.904388,64.905701 285.697205,65.385612 
	C285.415924,65.486374 285.151855,65.185913 285.071594,64.832214 
	C284.991333,64.478508 285.096069,64.058632 285.096069,64.058632 
	C286.074677,64.046700 287.053284,64.034767 288.394073,64.085114 
z"/>
<path fill="#AC6C87" opacity="1.000000" stroke="none" 
	d="
M302.149048,75.263268 
	C302.196716,74.926491 302.613373,74.962433 302.820984,74.987274 
	C303.528137,75.555763 304.027710,76.099419 304.664429,76.792351 
	C303.921783,76.876671 303.318573,76.945160 302.402466,76.984360 
	C302.093475,76.503395 302.097443,76.051720 302.149048,75.263268 
z"/>
<path fill="#ECDCE6" opacity="1.000000" stroke="none" 
	d="
M284.747437,64.035034 
	C285.096069,64.058632 284.991333,64.478508 284.934204,64.686890 
	C284.346588,65.424873 283.816071,65.954468 283.127686,66.318787 
	C282.978546,65.672340 282.987244,65.191185 282.998871,64.349442 
	C283.467468,63.996384 283.933105,64.003906 284.747437,64.035034 
z"/>
<path fill="#9F5774" opacity="1.000000" stroke="none" 
	d="
M313.998047,75.996689 
	C313.791107,75.069992 313.584900,74.147141 313.691345,73.104301 
	C314.003998,72.984314 314.008606,73.002632 314.093872,73.370834 
	C314.115723,74.491371 314.052277,75.243690 313.988831,75.996010 
	C313.988831,75.996010 313.998810,76.000534 313.998047,75.996689 
z"/>
<path fill="#F1E6ED" opacity="1.000000" stroke="none" 
	d="
M317.310028,72.969269 
	C317.008972,72.547470 317.005249,72.107971 316.998169,71.338882 
	C317.486694,71.268684 317.978607,71.528084 318.731689,71.883545 
	C318.531067,72.303589 318.069214,72.627579 317.310028,72.969269 
z"/>
<path fill="#F1E6ED" opacity="1.000000" stroke="none" 
	d="
M320.755249,71.016129 
	C320.953827,71.731544 320.897949,72.441948 320.842072,73.152351 
	C320.665985,73.160210 320.489929,73.168076 320.313843,73.175941 
	C320.209808,72.657150 320.105743,72.138359 319.996735,71.318733 
	C320.161407,71.015640 320.331085,71.013382 320.755249,71.016129 
z"/>
<path fill="#F1E6ED" opacity="1.000000" stroke="none" 
	d="
M326.088226,73.671135 
	C325.419617,73.757675 324.730011,73.639862 324.029358,73.248840 
	C324.018311,72.975624 324.485962,72.987045 324.992126,73.001099 
	C325.679169,73.029030 325.860046,73.042908 326.040955,73.056793 
	C326.040955,73.056793 326.067261,73.466789 326.088226,73.671135 
z"/>
<path fill="#ECDCE6" opacity="1.000000" stroke="none" 
	d="
M326.039398,72.785782 
	C325.860046,73.042908 325.679169,73.029030 325.226044,73.001328 
	C325.081635,72.589653 325.209534,72.191818 325.337433,71.793983 
	C325.570892,72.034241 325.804382,72.274498 326.039398,72.785782 
z"/>
<path fill="#F1E6ED" opacity="1.000000" stroke="none" 
	d="
M267.001221,77.001495 
	C266.904785,77.037445 266.807129,77.071907 266.853424,77.052063 
	C266.997406,76.997757 267.000000,77.000000 267.001221,77.001495 
z"/>
<path fill="#F1E6ED" opacity="1.000000" stroke="none" 
	d="
M305.425903,68.048416 
	C305.446930,67.899544 305.654938,67.745331 305.924133,67.798851 
	C305.985321,68.006584 305.612946,68.043068 305.425903,68.048416 
z"/>
<path fill="#CFA6BB" opacity="1.000000" stroke="none" 
	d="
M283.999817,79.999649 
	C284.124146,79.993942 284.248688,79.988594 284.187225,79.992157 
	C284.001221,80.001083 284.000000,80.000000 283.999817,79.999649 
z"/>
<path fill="#F9F4F7" opacity="1.000000" stroke="none" 
	d="
M83.156891,61.764816 
	C83.096458,64.191139 83.069122,66.187538 83.068756,68.183929 
	C83.066795,79.058403 82.435707,79.964272 71.682640,84.274612 
	C71.682640,76.288177 71.116753,68.322395 71.811584,60.468151 
	C72.931908,47.804073 82.109764,41.330162 95.139038,43.425182 
	C95.139038,46.652596 95.139038,49.929138 95.139038,53.582989 
	C89.594025,53.636547 84.546288,54.768940 83.156891,61.764816 
z"/>
<path fill="#F1A2B2" opacity="1.000000" stroke="none" 
	d="
M102.232941,55.111324 
	C95.303856,54.232285 98.771362,49.204075 98.351608,46.058029 
	C98.211311,45.006512 100.702133,42.755238 102.250725,42.470844 
	C109.828995,41.079121 113.923042,46.089725 110.462418,52.932640 
	C109.639427,54.559990 105.369583,54.444180 102.232941,55.111324 
z"/>
<path fill="#F7F1F5" opacity="1.000000" stroke="none" 
	d="
M89.908508,36.110390 
	C86.750481,38.828434 83.304932,39.328640 80.726593,36.729076 
	C79.202904,35.192841 78.373131,31.981173 78.740715,29.774361 
	C79.384552,25.909121 83.800758,24.101410 87.284149,25.546196 
	C91.382523,27.246056 92.399162,30.883738 89.908508,36.110390 
z"/>
<path fill="#F7F1F4" opacity="1.000000" stroke="none" 
	d="
M162.191025,61.618904 
	C164.803925,61.648209 167.180344,61.137005 169.037140,61.896378 
	C170.662964,62.561291 172.861130,64.779320 172.719269,66.084412 
	C172.531845,67.808846 170.558151,70.268349 168.905716,70.699188 
	C166.005936,71.455269 162.766922,70.910316 159.125092,70.910316 
	C160.152420,67.421783 156.749512,63.550789 162.191025,61.618904 
z"/>
<path fill="#F8F3F6" opacity="1.000000" stroke="none" 
	d="
M231.182068,44.632393 
	C232.404663,41.963268 233.226456,38.995720 235.170486,37.653229 
	C236.427094,36.785450 239.977203,37.630199 241.307449,38.928726 
	C242.645309,40.234692 243.275513,43.253281 242.781708,45.147549 
	C242.357086,46.776489 240.106873,48.542278 238.316757,49.069996 
	C234.989517,50.050850 232.607178,48.143993 231.182068,44.632393 
z"/>
<path fill="#F4EAF0" opacity="1.000000" stroke="none" 
	d="
M187.182739,68.981209 
	C192.323288,67.283073 192.565033,67.330666 196.201065,70.818138 
	C192.487152,72.125626 189.067413,73.329552 185.647675,74.533470 
	C185.343277,74.233650 185.038879,73.933823 184.734482,73.633995 
	C185.445099,72.168762 186.155701,70.703537 187.182739,68.981209 
z"/>
<path fill="#F8F2F5" opacity="1.000000" stroke="none" 
	d="
M232.902588,75.611794 
	C231.548691,79.014717 229.365784,81.251450 226.021622,80.360687 
	C224.117554,79.853508 221.940033,78.079399 221.115494,76.304474 
	C219.542847,72.919189 221.941605,69.089149 225.464066,68.276558 
	C229.341583,67.382057 232.267670,70.093033 232.902588,75.611794 
z"/>
<path fill="#F8F2F5" opacity="1.000000" stroke="none" 
	d="
M276.518677,42.336708 
	C275.099548,44.835758 273.980560,47.577335 271.941956,48.882084 
	C270.720428,49.663868 267.265228,48.843468 266.246887,47.584312 
	C264.928314,45.953892 264.180267,42.897289 264.792023,40.962273 
	C265.323700,39.280510 267.941010,37.573853 269.898987,37.179012 
	C273.293701,36.494438 275.413666,38.771736 276.518677,42.336708 
z"/>
<path fill="#F6EFF3" opacity="1.000000" stroke="none" 
	d="
M194.668564,47.852539 
	C191.829971,47.764282 188.946014,48.039387 186.906036,46.857616 
	C185.765884,46.197117 185.177292,42.718353 185.876831,41.233444 
	C186.701584,39.482742 189.093307,37.676575 190.982574,37.463512 
	C192.593643,37.281822 195.556320,39.020660 195.947693,40.450180 
	C196.532684,42.586926 195.386047,45.197742 194.668564,47.852539 
z"/>
<path fill="#FEFDFD" opacity="1.000000" stroke="none" 
	d="
M268.001801,75.002380 
	C268.092346,74.968597 268.181122,74.932442 268.132568,74.946335 
	C267.995270,74.996368 268.000000,75.000000 268.001801,75.002380 
z"/>
<path fill="#FEFDFD" opacity="1.000000" stroke="none" 
	d="
M281.454712,72.523453 
	C281.422180,72.466873 281.487244,72.580032 281.454712,72.523453 
z"/>
<path fill="#FEFDFD" opacity="1.000000" stroke="none" 
	d="
M290.325714,80.110596 
	C290.149536,78.557472 290.149536,77.285820 290.149536,76.956032 
	C289.706665,77.499847 295.521179,78.749733 290.325714,80.110596 
z"/>
<path fill="#944768" opacity="1.000000" stroke="none" 
	d="
M294.986267,75.981049 
	C294.614929,75.240181 294.253937,74.521126 293.892975,73.802071 
	C294.148560,73.721336 294.404175,73.640594 294.659790,73.559860 
	C294.783722,74.138191 294.907654,74.716530 294.994934,75.632965 
	C294.958252,75.971062 294.996643,76.002869 294.986267,75.981049 
z"/>
<path fill="#FEFDFD" opacity="1.000000" stroke="none" 
	d="
M314.318481,75.933044 
	C314.052277,75.243690 314.115723,74.491371 314.102448,73.365807 
	C314.745148,73.019554 315.464569,73.046547 316.540588,73.086563 
	C316.147491,74.023094 315.397797,74.946587 314.318481,75.933044 
z"/>
<path fill="#ECDCE6" opacity="1.000000" stroke="none" 
	d="
M281.184967,66.230179 
	C281.175690,66.217407 281.268250,66.347710 281.195129,66.312828 
	C281.122009,66.277946 281.194244,66.242950 281.184967,66.230179 
z"/>
<path fill="#FEFDFD" opacity="1.000000" stroke="none" 
	d="
M303.501038,73.416122 
	C303.725342,73.417290 303.800903,73.502296 303.876465,73.587311 
	C303.701752,73.558197 303.527008,73.529083 303.501038,73.416122 
z"/>
</svg>