<svg version="1.1" id="Layer_1" xmlns="http://www.w3.org/2000/svg" xmlns:xlink="http://www.w3.org/1999/xlink" x="0px" y="0px"
	 width="100%" viewBox="0 0 300 300" enable-background="new 0 0 300 300" xml:space="preserve">
<path fill="#FFFEFF" opacity="1.000000" stroke="none" 
	d="
M205.000000,301.000000 
	C136.666672,301.000000 68.833359,301.000000 1.000027,301.000000 
	C1.000018,201.000031 1.000018,101.000061 1.000009,1.000068 
	C100.999947,1.000045 200.999893,1.000045 300.999878,1.000023 
	C300.999939,100.999939 300.999939,200.999878 300.999969,300.999908 
	C269.166656,301.000000 237.333328,301.000000 205.000000,301.000000 
M124.001404,253.445755 
	C158.895874,255.541977 193.587280,253.664093 228.013824,247.664780 
	C241.425797,245.327530 251.867432,232.963715 251.914200,219.388718 
	C252.071457,173.736465 252.091263,128.082825 251.901413,82.430809 
	C251.843750,68.565300 240.869156,56.257900 227.499512,54.048645 
	C177.138489,45.726772 126.768242,45.492390 76.387970,53.899998 
	C61.022556,56.464218 50.661625,68.140915 50.633148,83.484459 
	C50.549660,128.470642 50.551231,173.457199 50.632275,218.443405 
	C50.659725,233.680527 61.446892,246.031235 76.472054,247.965668 
	C91.979599,249.962189 107.535347,251.584427 124.001404,253.445755 
z"/>
<path fill="#AC0249" opacity="1.000000" stroke="none" 
	d="
M123.535706,253.408096 
	C107.535347,251.584427 91.979599,249.962189 76.472054,247.965668 
	C61.446892,246.031235 50.659725,233.680527 50.632275,218.443405 
	C50.551231,173.457199 50.549660,128.470642 50.633148,83.484459 
	C50.661625,68.140915 61.022556,56.464218 76.387970,53.899998 
	C126.768242,45.492390 177.138489,45.726772 227.499512,54.048645 
	C240.869156,56.257900 251.843750,68.565300 251.901413,82.430809 
	C252.091263,128.082825 252.071457,173.736465 251.914200,219.388718 
	C251.867432,232.963715 241.425797,245.327530 228.013824,247.664780 
	C193.587280,253.664093 158.895874,255.541977 123.535706,253.408096 
M162.166855,98.599007 
	C162.166855,96.664940 162.166855,94.730873 162.166855,92.937958 
	C145.238022,89.395409 129.781296,98.769745 127.106705,114.868576 
	C125.596603,123.958138 126.280037,133.415451 126.058701,142.709091 
	C126.042030,143.409027 126.501740,144.437119 127.065514,144.784714 
	C132.336853,148.034744 137.679352,151.169373 143.753052,154.784943 
	C143.753052,143.121826 143.583176,132.663254 143.807022,122.213104 
	C143.984726,113.916862 149.128983,109.082169 157.421478,108.821754 
	C158.865570,108.776405 160.312286,108.815323 162.166885,108.815323 
	C162.166885,105.477806 162.166885,102.519989 162.166855,98.599007 
M187.934204,221.196487 
	C190.189819,221.196487 192.445435,221.196487 195.201874,221.196487 
	C191.411545,210.410690 188.054688,200.190598 184.101700,190.206528 
	C183.363434,188.341843 180.249115,186.387146 178.205460,186.359100 
	C176.149948,186.330887 172.906738,188.195053 172.180481,190.023148 
	C168.171860,200.113419 164.773849,210.446259 161.045410,221.039948 
	C165.553909,221.176773 170.094574,222.925797 171.059082,216.542923 
	C171.162048,215.861526 172.340393,214.858246 173.048309,214.834000 
	C176.689972,214.709290 180.492645,214.278046 183.917587,215.177750 
	C185.388000,215.564011 186.080582,218.911392 187.934204,221.196487 
M107.546288,217.878906 
	C113.994789,223.839233 121.605423,220.313263 128.755463,221.167892 
	C128.755463,218.371689 128.755463,216.273132 128.755463,213.681366 
	C124.921242,213.681366 121.309105,213.650253 117.697723,213.689423 
	C113.405396,213.735992 112.063034,211.773178 113.561798,207.268707 
	C117.793648,207.268707 122.031166,207.268707 126.326752,207.268707 
	C126.326752,204.649170 126.326752,202.552399 126.326752,200.028778 
	C121.830666,200.028778 117.572563,200.028778 113.352104,200.028778 
	C112.172523,195.602051 113.439125,193.666641 117.827652,193.905792 
	C121.426170,194.101898 125.043877,193.945740 128.593964,193.945740 
	C128.593964,191.011063 128.593964,188.646194 128.593964,186.114059 
	C123.888092,186.114059 119.569008,185.930786 115.272629,186.164658 
	C110.809235,186.407639 106.654015,188.306778 105.862663,192.908829 
	C104.469078,201.013077 103.341324,209.313614 107.546288,217.878906 
M214.582794,186.574875 
	C212.354050,190.706680 210.125305,194.838486 207.736206,199.267578 
	C199.969742,185.405670 199.969742,185.405670 192.446945,186.635513 
	C197.225372,197.849380 207.184433,207.240738 203.587570,220.822250 
	C206.872391,220.822250 209.244720,220.822250 212.419647,220.822250 
	C208.405502,206.806396 218.737061,197.625854 223.215652,186.188248 
	C220.227554,186.188248 217.761765,186.188248 214.582794,186.574875 
M143.724014,199.503250 
	C143.724014,195.093994 143.724014,190.684738 143.724014,186.378357 
	C140.679443,186.378357 138.429596,186.378357 135.911041,186.378357 
	C135.911041,195.144897 135.658783,203.611374 135.996613,212.054260 
	C136.235855,218.033432 140.461960,221.111206 147.414291,221.248749 
	C156.177170,221.422073 156.177170,221.422089 157.383911,213.986923 
	C153.289627,213.654190 147.662735,214.803940 145.517380,212.586029 
	C143.214355,210.205109 144.182983,204.659561 143.724014,199.503250 
M89.092873,198.292847 
	C91.046402,193.022552 95.957436,194.235046 99.833107,193.712357 
	C99.833107,191.081421 99.833107,188.817505 99.833107,186.611588 
	C89.759369,184.809799 82.134567,188.628128 81.266502,196.861328 
	C80.424637,204.846069 81.083885,212.989075 81.083885,221.016449 
	C83.781616,221.016449 86.150253,221.016449 88.902794,221.016449 
	C88.902794,213.444550 88.902794,206.302597 89.092873,198.292847 
M156.099854,77.135811 
	C156.659027,71.901894 154.731567,67.937561 149.727890,66.078514 
	C145.241028,64.411484 141.186600,65.565460 138.221649,69.416763 
	C135.677490,72.721458 134.795410,76.897537 137.457352,79.995529 
	C139.688919,82.592667 143.409164,84.971848 146.704285,85.337227 
	C151.279617,85.844566 154.631851,82.623550 156.099854,77.135811 
M166.164536,100.518074 
	C166.164536,103.276787 166.164536,106.035500 166.164536,108.776360 
	C172.139969,108.776360 177.373062,108.776360 182.715012,108.776360 
	C182.715012,103.367683 182.715012,98.294662 182.715012,92.948975 
	C177.219803,92.948975 171.995651,92.948975 166.164688,92.948975 
	C166.164688,95.329453 166.164688,97.441628 166.164536,100.518074 
M96.883888,174.461807 
	C96.883888,173.961884 97.030472,173.403931 96.859421,172.971710 
	C95.946922,170.665894 95.259926,166.668579 93.932610,166.433670 
	C90.152054,165.764572 86.091934,166.562653 82.163315,166.983704 
	C81.667320,167.036865 80.983597,168.262863 80.928322,168.986816 
	C80.713348,171.802170 80.639496,174.636169 80.710320,177.458282 
	C80.723030,177.964737 81.668228,178.447800 82.182877,178.941681 
	C82.636177,178.381027 83.101768,177.829529 83.531990,177.251694 
	C83.614273,177.141174 83.529755,176.920181 83.568359,176.761383 
	C84.208054,174.130127 84.855125,171.500641 85.500549,168.870773 
	C86.040894,171.422531 86.477760,174.003006 87.173653,176.511612 
	C87.443405,177.484024 88.299118,178.293884 88.887894,179.177795 
	C89.305153,178.997253 89.722404,178.816727 90.139664,178.636200 
	C90.139664,176.174805 89.976875,173.696594 90.228439,171.261185 
	C90.315849,170.414963 91.429047,169.674713 92.073730,168.886063 
	C92.655022,169.732117 93.655159,170.539474 93.737602,171.431641 
	C93.967690,173.921356 93.817604,176.446213 93.817604,178.957199 
	C94.465385,179.040619 95.113159,179.124039 95.760941,179.207458 
	C96.135162,177.923859 96.509384,176.640259 96.883888,174.461807 
M156.692993,165.915695 
	C156.021942,166.609756 154.812439,167.273285 154.771088,168.003036 
	C154.569412,171.561142 154.679855,175.136932 154.679855,178.640198 
	C162.418060,179.384995 165.174835,177.819534 165.429901,172.902435 
	C165.674850,168.180939 163.432251,166.190277 156.692993,165.915695 
M108.572487,170.205963 
	C107.399292,174.406647 108.868378,177.575943 112.904587,178.873230 
	C116.285011,179.959747 119.178192,178.507172 120.495674,175.044022 
	C121.843330,171.501556 120.933746,168.238235 117.576057,166.517090 
	C114.016388,164.692413 110.814690,165.680771 108.572487,170.205963 
M201.486633,178.972870 
	C201.938263,178.354324 202.891251,177.589935 202.760574,177.140793 
	C201.881378,174.118622 200.885422,171.115936 199.670227,168.214630 
	C199.293076,167.314102 198.012573,166.076630 197.334381,166.184113 
	C196.301758,166.347794 194.988510,167.362061 194.576736,168.343384 
	C193.191406,171.644653 192.151886,175.091049 190.980057,178.481918 
	C193.084396,178.389160 194.399185,176.824387 195.716766,176.822052 
	C197.366745,176.819107 199.018997,178.099197 201.486633,178.972870 
M133.821396,167.177673 
	C133.294067,171.037430 132.766739,174.897186 132.239410,178.756943 
	C132.855423,178.933533 133.471436,179.110123 134.087463,179.286697 
	C134.605988,178.532852 135.433365,177.832428 135.575058,177.013382 
	C135.825790,175.564224 135.459732,174.005859 135.727417,172.562881 
	C135.964462,171.285065 136.712341,170.102036 137.234726,168.877167 
	C137.855118,170.155182 138.727783,171.377304 139.026749,172.726547 
	C139.342041,174.149384 138.914261,175.731567 139.193771,177.169754 
	C139.348511,177.965958 140.286560,178.609924 140.871521,179.322525 
	C141.289001,179.176666 141.706497,179.030823 142.123978,178.884964 
	C142.123978,176.476562 142.168274,174.067184 142.115021,171.659958 
	C141.994080,166.194351 140.100998,164.967148 133.821396,167.177673 
M216.605972,167.153183 
	C215.636765,167.070145 214.667572,166.987122 213.698364,166.904083 
	C213.800690,170.211853 213.480698,173.621063 214.237366,176.771683 
	C214.497620,177.855331 217.393280,178.563339 219.188049,178.910950 
	C220.065140,179.080826 221.178513,178.030640 222.184937,177.532700 
	C222.060242,177.168259 221.935562,176.803818 221.810883,176.439377 
	C220.257401,176.162857 218.703918,175.886337 216.673309,175.524902 
	C216.673309,172.957489 216.673309,170.491028 216.605972,167.153183 
M176.716232,166.268799 
	C176.538376,167.874039 176.067108,169.513229 176.248062,171.076950 
	C176.557678,173.752258 177.275650,176.380295 177.822098,179.028183 
	C178.450882,176.301712 179.461731,173.589417 179.563751,170.843384 
	C179.624023,169.220840 178.246262,167.544891 176.716232,166.268799 
z"/>
<path fill="#FDF9FA" opacity="1.000000" stroke="none" 
	d="
M162.166870,99.080597 
	C162.166885,102.519989 162.166885,105.477806 162.166885,108.815323 
	C160.312286,108.815323 158.865570,108.776405 157.421478,108.821754 
	C149.128983,109.082169 143.984726,113.916862 143.807022,122.213104 
	C143.583176,132.663254 143.753052,143.121826 143.753052,154.784943 
	C137.679352,151.169373 132.336853,148.034744 127.065514,144.784714 
	C126.501740,144.437119 126.042030,143.409027 126.058701,142.709091 
	C126.280037,133.415451 125.596603,123.958138 127.106705,114.868576 
	C129.781296,98.769745 145.238022,89.395409 162.166855,92.937958 
	C162.166855,94.730873 162.166855,96.664940 162.166870,99.080597 
z"/>
<path fill="#FCF6F8" opacity="1.000000" stroke="none" 
	d="
M187.530380,221.054962 
	C186.080582,218.911392 185.388000,215.564011 183.917587,215.177750 
	C180.492645,214.278046 176.689972,214.709290 173.048309,214.834000 
	C172.340393,214.858246 171.162048,215.861526 171.059082,216.542923 
	C170.094574,222.925797 165.553909,221.176773 161.045410,221.039948 
	C164.773849,210.446259 168.171860,200.113419 172.180481,190.023148 
	C172.906738,188.195053 176.149948,186.330887 178.205460,186.359100 
	C180.249115,186.387146 183.363434,188.341843 184.101700,190.206528 
	C188.054688,200.190598 191.411545,210.410690 195.201874,221.196487 
	C192.445435,221.196487 190.189819,221.196487 187.530380,221.054962 
M175.803711,202.231720 
	C175.344711,203.724197 174.885696,205.216690 174.363083,206.915985 
	C177.086029,206.915985 179.346878,206.915985 182.006927,206.915985 
	C180.790405,203.356003 179.683762,200.117569 178.164276,195.671021 
	C177.112366,198.492081 176.555588,199.985306 175.803711,202.231720 
z"/>
<path fill="#FCF8FA" opacity="1.000000" stroke="none" 
	d="
M107.304749,217.567902 
	C103.341324,209.313614 104.469078,201.013077 105.862663,192.908829 
	C106.654015,188.306778 110.809235,186.407639 115.272629,186.164658 
	C119.569008,185.930786 123.888092,186.114059 128.593964,186.114059 
	C128.593964,188.646194 128.593964,191.011063 128.593964,193.945740 
	C125.043877,193.945740 121.426170,194.101898 117.827652,193.905792 
	C113.439125,193.666641 112.172523,195.602051 113.352104,200.028778 
	C117.572563,200.028778 121.830666,200.028778 126.326752,200.028778 
	C126.326752,202.552399 126.326752,204.649170 126.326752,207.268707 
	C122.031166,207.268707 117.793648,207.268707 113.561798,207.268707 
	C112.063034,211.773178 113.405396,213.735992 117.697723,213.689423 
	C121.309105,213.650253 124.921242,213.681366 128.755463,213.681366 
	C128.755463,216.273132 128.755463,218.371689 128.755463,221.167892 
	C121.605423,220.313263 113.994789,223.839233 107.304749,217.567902 
z"/>
<path fill="#FBF5F8" opacity="1.000000" stroke="none" 
	d="
M214.939392,186.381561 
	C217.761765,186.188248 220.227554,186.188248 223.215652,186.188248 
	C218.737061,197.625854 208.405502,206.806396 212.419647,220.822250 
	C209.244720,220.822250 206.872391,220.822250 203.587570,220.822250 
	C207.184433,207.240738 197.225372,197.849380 192.446945,186.635513 
	C199.969742,185.405670 199.969742,185.405670 207.736206,199.267578 
	C210.125305,194.838486 212.354050,190.706680 214.939392,186.381561 
z"/>
<path fill="#FBF5F7" opacity="1.000000" stroke="none" 
	d="
M143.723969,199.999115 
	C144.182983,204.659561 143.214355,210.205109 145.517380,212.586029 
	C147.662735,214.803940 153.289627,213.654190 157.383789,213.988312 
	C156.177170,221.422089 156.177170,221.422073 147.414291,221.248749 
	C140.461960,221.111206 136.235855,218.033432 135.996613,212.054260 
	C135.658783,203.611374 135.911041,195.144897 135.911041,186.378357 
	C138.429596,186.378357 140.679443,186.378357 143.724014,186.378357 
	C143.724014,190.684738 143.724014,195.093994 143.723969,199.999115 
z"/>
<path fill="#FBF5F7" opacity="1.000000" stroke="none" 
	d="
M88.997833,198.726746 
	C88.902794,206.302597 88.902794,213.444550 88.902794,221.016449 
	C86.150253,221.016449 83.781616,221.016449 81.083885,221.016449 
	C81.083885,212.989075 80.424637,204.846069 81.266502,196.861328 
	C82.134567,188.628128 89.759369,184.809799 99.833107,186.611588 
	C99.833107,188.817505 99.833107,191.081421 99.833107,193.712357 
	C95.957436,194.235046 91.046402,193.022552 88.997833,198.726746 
z"/>
<path fill="#CCC4BD" opacity="1.000000" stroke="none" 
	d="
M156.052856,77.544601 
	C154.631851,82.623550 151.279617,85.844566 146.704285,85.337227 
	C143.409164,84.971848 139.688919,82.592667 137.457352,79.995529 
	C134.795410,76.897537 135.677490,72.721458 138.221649,69.416763 
	C141.186600,65.565460 145.241028,64.411484 149.727890,66.078514 
	C154.731567,67.937561 156.659027,71.901894 156.052856,77.544601 
z"/>
<path fill="#CCC4BD" opacity="1.000000" stroke="none" 
	d="
M166.164612,100.035934 
	C166.164688,97.441628 166.164688,95.329453 166.164688,92.948975 
	C171.995651,92.948975 177.219803,92.948975 182.715012,92.948975 
	C182.715012,98.294662 182.715012,103.367683 182.715012,108.776360 
	C177.373062,108.776360 172.139969,108.776360 166.164536,108.776360 
	C166.164536,106.035500 166.164536,103.276787 166.164612,100.035934 
z"/>
<path fill="#F7EAF0" opacity="1.000000" stroke="none" 
	d="
M96.883743,174.909241 
	C96.509384,176.640259 96.135162,177.923859 95.760941,179.207458 
	C95.113159,179.124039 94.465385,179.040619 93.817604,178.957199 
	C93.817604,176.446213 93.967690,173.921356 93.737602,171.431641 
	C93.655159,170.539474 92.655022,169.732117 92.073730,168.886063 
	C91.429047,169.674713 90.315849,170.414963 90.228439,171.261185 
	C89.976875,173.696594 90.139664,176.174805 90.139664,178.636200 
	C89.722404,178.816727 89.305153,178.997253 88.887894,179.177795 
	C88.299118,178.293884 87.443405,177.484024 87.173653,176.511612 
	C86.477760,174.003006 86.040894,171.422531 85.500549,168.870773 
	C84.855125,171.500641 84.208054,174.130127 83.568359,176.761383 
	C83.529755,176.920181 83.614273,177.141174 83.531990,177.251694 
	C83.101768,177.829529 82.636177,178.381027 82.182884,178.941681 
	C81.668228,178.447800 80.723030,177.964737 80.710320,177.458282 
	C80.639496,174.636169 80.713348,171.802170 80.928322,168.986816 
	C80.983597,168.262863 81.667320,167.036865 82.163315,166.983704 
	C86.091934,166.562653 90.152054,165.764572 93.932610,166.433670 
	C95.259926,166.668579 95.946922,170.665894 96.859421,172.971710 
	C97.030472,173.403931 96.883888,173.961884 96.883743,174.909241 
z"/>
<path fill="#F6E8EE" opacity="1.000000" stroke="none" 
	d="
M157.122009,165.912186 
	C163.432251,166.190277 165.674850,168.180939 165.429901,172.902435 
	C165.174835,177.819534 162.418060,179.384995 154.679855,178.640198 
	C154.679855,175.136932 154.569412,171.561142 154.771088,168.003036 
	C154.812439,167.273285 156.021942,166.609756 157.122009,165.912186 
M162.280823,173.362289 
	C162.453766,170.500778 161.823807,168.435944 158.081146,169.131195 
	C158.081146,171.508392 158.081146,173.717148 158.081146,176.946045 
	C159.878967,175.719254 160.973129,174.972626 162.280823,173.362289 
z"/>
<path fill="#F6E7ED" opacity="1.000000" stroke="none" 
	d="
M108.715057,169.838959 
	C110.814690,165.680771 114.016388,164.692413 117.576057,166.517090 
	C120.933746,168.238235 121.843330,171.501556 120.495674,175.044022 
	C119.178192,178.507172 116.285011,179.959747 112.904587,178.873230 
	C108.868378,177.575943 107.399292,174.406647 108.715057,169.838959 
M118.002213,172.404572 
	C116.778519,171.161652 115.554825,169.918732 114.331123,168.675812 
	C113.296188,169.787552 111.546028,170.827301 111.424858,172.031006 
	C111.300423,173.267044 112.767578,174.663300 113.538216,175.989456 
	C115.000732,175.062164 116.463249,174.134872 118.002213,172.404572 
z"/>
<path fill="#F6E8EE" opacity="1.000000" stroke="none" 
	d="
M201.078461,178.899170 
	C199.018997,178.099197 197.366745,176.819107 195.716766,176.822052 
	C194.399185,176.824387 193.084396,178.389160 190.980057,178.481918 
	C192.151886,175.091049 193.191406,171.644653 194.576736,168.343384 
	C194.988510,167.362061 196.301758,166.347794 197.334381,166.184113 
	C198.012573,166.076630 199.293076,167.314102 199.670227,168.214630 
	C200.885422,171.115936 201.881378,174.118622 202.760574,177.140793 
	C202.891251,177.589935 201.938263,178.354324 201.078461,178.899170 
z"/>
<path fill="#F5E3EA" opacity="1.000000" stroke="none" 
	d="
M134.124069,166.896973 
	C140.100998,164.967148 141.994080,166.194351 142.115021,171.659958 
	C142.168274,174.067184 142.123978,176.476562 142.123978,178.884964 
	C141.706497,179.030823 141.289001,179.176666 140.871521,179.322525 
	C140.286560,178.609924 139.348511,177.965958 139.193771,177.169754 
	C138.914261,175.731567 139.342041,174.149384 139.026749,172.726547 
	C138.727783,171.377304 137.855118,170.155182 137.234711,168.877167 
	C136.712341,170.102036 135.964462,171.285065 135.727417,172.562881 
	C135.459732,174.005859 135.825790,175.564224 135.575058,177.013382 
	C135.433365,177.832428 134.605988,178.532852 134.087463,179.286697 
	C133.471436,179.110123 132.855423,178.933533 132.239410,178.756943 
	C132.766739,174.897186 133.294067,171.037430 134.124069,166.896973 
z"/>
<path fill="#F3DEE7" opacity="1.000000" stroke="none" 
	d="
M216.639648,167.588867 
	C216.673309,170.491028 216.673309,172.957489 216.673309,175.524902 
	C218.703918,175.886337 220.257401,176.162857 221.810883,176.439377 
	C221.935562,176.803818 222.060242,177.168259 222.184937,177.532700 
	C221.178513,178.030640 220.065140,179.080826 219.188049,178.910950 
	C217.393280,178.563339 214.497620,177.855331 214.237366,176.771683 
	C213.480698,173.621063 213.800690,170.211853 213.698364,166.904083 
	C214.667572,166.987122 215.636765,167.070145 216.639648,167.588867 
z"/>
<path fill="#E7BBCD" opacity="1.000000" stroke="none" 
	d="
M177.115692,166.080872 
	C178.246262,167.544891 179.624023,169.220840 179.563751,170.843384 
	C179.461731,173.589417 178.450882,176.301712 177.822113,179.028183 
	C177.275650,176.380295 176.557678,173.752258 176.248062,171.076950 
	C176.067108,169.513229 176.538376,167.874039 177.115692,166.080872 
z"/>
<path fill="#B21555" opacity="1.000000" stroke="none" 
	d="
M175.901245,201.855118 
	C176.555588,199.985306 177.112366,198.492081 178.164276,195.671021 
	C179.683762,200.117569 180.790405,203.356003 182.006927,206.915985 
	C179.346878,206.915985 177.086029,206.915985 174.363083,206.915985 
	C174.885696,205.216690 175.344711,203.724197 175.901245,201.855118 
z"/>
<path fill="#AE0A4D" opacity="1.000000" stroke="none" 
	d="
M162.174072,173.794128 
	C160.973129,174.972626 159.878967,175.719254 158.081146,176.946045 
	C158.081146,173.717148 158.081146,171.508392 158.081146,169.131195 
	C161.823807,168.435944 162.453766,170.500778 162.174072,173.794128 
z"/>
<path fill="#B11555" opacity="1.000000" stroke="none" 
	d="
M117.963989,172.806076 
	C116.463249,174.134872 115.000732,175.062164 113.538208,175.989441 
	C112.767578,174.663300 111.300423,173.267044 111.424858,172.031006 
	C111.546028,170.827301 113.296188,169.787552 114.331123,168.675812 
	C115.554825,169.918732 116.778519,171.161652 117.963989,172.806076 
z"/>
</svg>