<?xml version="1.0" standalone="no"?>
<!DOCTYPE svg PUBLIC "-//W3C//DTD SVG 20010904//EN"
 "http://www.w3.org/TR/2001/REC-SVG-20010904/DTD/svg10.dtd">
<svg version="1.0" xmlns="http://www.w3.org/2000/svg"
 width="370.000000pt" height="109.000000pt" viewBox="0 0 370.000000 109.000000"
 preserveAspectRatio="xMidYMid meet">

<g transform="translate(0.000000,109.000000) scale(0.100000,-0.100000)"
fill="#000000" stroke="none">
<path d="M730 979 c-197 -15 -234 -29 -269 -96 -7 -15 -11 -124 -11 -340 0
-298 1 -320 20 -350 10 -18 32 -39 49 -47 96 -50 620 -48 720 2 68 34 71 49
71 397 0 344 -3 361 -65 397 -55 31 -331 51 -515 37z m160 -156 c38 -48 8
-103 -56 -103 -23 0 -38 7 -48 22 -21 30 -20 50 5 82 28 35 70 35 99 -1z m203
-163 c5 -4 7 -29 5 -56 l-3 -49 -60 0 -60 0 0 55 c0 49 2 55 25 61 27 8 80 2
93 -11z m-145 -47 l3 -53 -35 0 c-22 0 -45 -9 -63 -24 -26 -23 -28 -29 -31
-120 l-4 -97 -54 -34 c-30 -19 -57 -35 -59 -35 -10 0 -5 220 6 270 12 58 56
115 104 136 16 8 53 13 80 11 l50 -2 3 -52z"/>
<path d="M1537 843 c-4 -3 -7 -66 -7 -140 l0 -133 25 0 c25 0 25 1 25 83 l1
82 28 -32 c15 -18 34 -33 41 -33 7 0 26 15 41 33 l28 32 1 -82 c0 -82 0 -83
25 -83 l26 0 -3 137 c-4 164 -12 175 -72 88 -21 -30 -42 -55 -46 -55 -3 0 -24
25 -45 55 -35 52 -53 64 -68 48z"/>
<path d="M2520 835 c-17 -20 -5 -45 20 -45 11 0 23 7 26 15 6 15 -11 45 -26
45 -4 0 -13 -7 -20 -15z"/>
<path d="M2430 801 l0 -40 -54 6 c-51 5 -57 4 -85 -25 -42 -42 -43 -98 -3
-144 23 -24 36 -31 63 -30 19 1 53 2 77 2 l42 1 0 135 c0 127 -1 134 -20 134
-17 0 -20 -7 -20 -39z m-34 -79 c42 -28 35 -95 -13 -113 -56 -21 -108 57 -67
102 17 19 59 25 80 11z"/>
<path d="M2868 829 c-15 -8 -18 -25 -18 -109 0 -54 3 -106 6 -115 15 -39 119
-53 112 -16 -2 9 -15 17 -30 19 -15 2 -31 9 -37 16 -6 7 -12 58 -13 113 -3 93
-4 101 -20 92z"/>
<path d="M1873 773 c-38 -7 -73 -59 -73 -107 0 -112 152 -142 193 -38 32 80
-34 160 -120 145z m65 -59 c44 -31 17 -104 -39 -104 -30 0 -59 31 -59 62 0 23
35 58 58 58 10 0 28 -7 40 -16z"/>
<path d="M2030 670 l0 -100 25 0 c24 0 25 2 25 69 0 78 11 94 62 89 l33 -3 3
-77 c3 -75 4 -78 27 -78 24 0 25 2 25 78 0 69 -3 81 -23 100 -26 25 -95 30
-115 10 -9 -9 -12 -9 -12 0 0 7 -11 12 -25 12 l-25 0 0 -100z"/>
<path d="M2619 740 c-40 -40 -40 -97 -1 -142 23 -24 36 -31 63 -30 19 1 53 2
77 2 l42 1 0 98 0 97 -76 2 c-72 1 -78 0 -105 -28z m121 -32 c11 -12 20 -30
20 -40 0 -22 -43 -68 -63 -68 -27 0 -67 41 -67 67 0 59 69 84 110 41z"/>
<path d="M2520 665 c0 -88 1 -95 20 -95 19 0 20 7 20 95 0 88 -1 95 -20 95
-19 0 -20 -7 -20 -95z"/>
<path d="M1557 520 l-28 -22 3 -121 c3 -118 4 -122 26 -125 20 -3 22 1 22 42
l0 46 48 0 c45 0 49 -3 77 -45 23 -35 36 -45 58 -45 15 0 27 2 27 5 0 2 -14
24 -31 49 l-32 44 22 28 c30 38 27 86 -7 125 -24 27 -36 32 -92 36 -56 4 -69
2 -93 -17z m154 -51 c12 -20 11 -53 -3 -67 -7 -7 -38 -12 -70 -12 l-58 0 0 43
c0 24 3 47 8 51 12 13 113 0 123 -15z"/>
<path d="M2030 423 c1 -123 5 -139 47 -161 26 -14 53 -15 72 -3 21 13 -2 39
-37 43 l-27 3 -5 115 c-5 110 -6 115 -27 118 -23 3 -23 2 -23 -115z"/>
<path d="M1832 435 c-77 -65 -27 -185 77 -185 29 0 91 42 91 61 0 20 -29 20
-49 0 -24 -24 -59 -27 -86 -7 -17 12 -11 16 63 40 45 15 82 32 82 38 0 5 -15
25 -34 44 -44 44 -99 47 -144 9z m108 -25 c20 -12 6 -24 -52 -43 -42 -14 -48
-14 -48 -1 0 33 20 54 53 54 18 0 39 -5 47 -10z"/>
<path d="M2190 433 c-42 -39 -49 -87 -18 -133 28 -41 76 -59 118 -43 19 7 32
7 39 0 5 -5 17 -7 25 -4 23 9 23 195 1 203 -8 4 -21 1 -28 -4 -8 -7 -18 -7
-27 -2 -30 19 -79 11 -110 -17z m110 -33 c11 -11 20 -31 20 -45 0 -30 -32 -65
-59 -65 -24 0 -57 29 -65 56 -9 29 28 74 60 74 13 0 33 -9 44 -20z"/>
<path d="M2410 391 c0 -60 4 -74 26 -100 29 -34 81 -49 113 -32 19 11 21 9 21
-19 0 -45 -47 -90 -95 -90 -45 0 -92 23 -100 50 -4 13 -15 20 -31 20 -23 0
-24 -1 -11 -32 21 -51 69 -78 138 -78 51 0 63 4 94 31 45 40 56 84 53 211 -3
98 -4 103 -25 106 -22 3 -23 0 -23 -61 0 -68 -17 -97 -56 -97 -42 0 -64 38
-64 109 0 44 -3 51 -20 51 -18 0 -20 -7 -20 -69z"/>
<path d="M2794 449 c-3 -6 -1 -15 6 -19 10 -6 9 -9 -1 -13 -10 -4 -9 -6 4 -6
19 -1 23 14 7 24 -6 4 -8 11 -5 16 4 5 4 9 1 9 -3 0 -8 -5 -12 -11z"/>
<path d="M2850 456 c0 -2 7 -7 16 -10 8 -3 12 -2 9 4 -6 10 -25 14 -25 6z"/>
<path d="M2894 435 c1 -29 41 -27 42 3 1 18 1 19 -3 2 -5 -25 -30 -26 -36 -2
-3 13 -4 12 -3 -3z"/>
<path d="M2951 440 c-1 -19 4 -26 17 -26 11 0 18 8 19 21 1 11 -1 14 -4 8 -7
-19 -21 -16 -26 5 -3 11 -5 9 -6 -8z"/>
<path d="M3080 435 c0 -17 5 -25 18 -25 13 0 14 2 3 9 -7 5 -9 10 -3 12 6 2 4
9 -4 17 -12 11 -14 9 -14 -13z"/>
<path d="M2661 432 c-1 -17 4 -23 16 -20 10 2 18 11 19 21 1 12 1 13 -3 2 -6
-20 -20 -19 -26 3 -3 12 -5 11 -6 -6z"/>
<path d="M2711 428 c1 -19 2 -19 6 -5 5 18 6 18 24 1 18 -16 19 -16 19 7 0 17
-3 20 -9 10 -6 -9 -11 -10 -15 -2 -12 19 -26 12 -25 -11z"/>
<path d="M2834 430 c1 -16 46 -28 46 -12 0 6 -9 8 -19 5 -11 -3 -21 1 -24 9
-3 9 -4 8 -3 -2z"/>
<path d="M3002 430 c0 -14 2 -19 5 -12 2 6 2 18 0 25 -3 6 -5 1 -5 -13z"/>
<path d="M3030 426 c0 -2 7 -6 15 -10 8 -3 15 -1 15 4 0 6 -7 10 -15 10 -8 0
-15 -2 -15 -4z"/>
<path d="M2730 371 c0 -5 9 -7 20 -4 11 3 20 7 20 9 0 2 -9 4 -20 4 -11 0 -20
-4 -20 -9z"/>
<path d="M2780 359 c0 -11 4 -18 10 -14 5 3 7 12 3 20 -7 21 -13 19 -13 -6z"/>
<path d="M2855 370 c3 -5 8 -10 11 -10 2 0 4 5 4 10 0 6 -5 10 -11 10 -5 0 -7
-4 -4 -10z"/>
<path d="M2893 364 c-4 -11 1 -22 12 -31 16 -11 20 -11 28 3 5 8 6 22 3 30 -7
19 -35 18 -43 -2z m37 -9 c0 -8 -7 -15 -15 -15 -8 0 -15 7 -15 15 0 8 7 15 15
15 8 0 15 -7 15 -15z"/>
<path d="M2954 355 c1 -20 36 -36 36 -16 0 6 -6 8 -14 5 -9 -3 -16 2 -19 13
-3 15 -4 15 -3 -2z"/>
<path d="M3010 363 c0 -10 4 -14 8 -8 4 6 11 13 16 18 5 4 2 7 -7 7 -10 0 -17
-8 -17 -17z"/>
<path d="M3074 365 c-8 -19 4 -35 24 -34 15 1 15 2 0 6 -10 2 -18 11 -18 18 0
7 8 16 18 18 16 4 16 5 -1 6 -10 0 -20 -6 -23 -14z"/>
<path d="M3124 365 c-4 -9 -2 -21 4 -27 15 -15 44 -1 40 19 -4 23 -36 29 -44
8z m36 -10 c0 -8 -7 -15 -15 -15 -8 0 -15 7 -15 15 0 8 7 15 15 15 8 0 15 -7
15 -15z"/>
<path d="M3210 370 c0 -8 9 -21 20 -28 18 -11 20 -10 19 15 0 24 -2 25 -8 8
-8 -19 -8 -19 -19 0 -8 15 -11 16 -12 5z"/>
<path d="M2660 349 c0 -5 9 -9 20 -9 11 0 20 2 20 4 0 2 -9 6 -20 9 -11 3 -20
1 -20 -4z"/>
<path d="M2840 349 c0 -5 9 -9 20 -9 11 0 20 2 20 4 0 2 -9 6 -20 9 -11 3 -20
1 -20 -4z"/>
<path d="M2738 338 c5 -5 16 -8 23 -6 8 3 3 7 -10 11 -17 4 -21 3 -13 -5z"/>
<path d="M3018 333 c7 -3 16 -2 19 1 4 3 -2 6 -13 5 -11 0 -14 -3 -6 -6z"/>
<path d="M2661 278 c-1 -28 21 -39 34 -18 3 5 0 7 -9 4 -9 -4 -16 2 -19 18 -4
21 -4 20 -6 -4z"/>
<path d="M2721 278 c-1 -21 4 -28 17 -28 11 0 13 3 6 8 -7 4 -14 16 -17 27 -4
15 -5 14 -6 -7z"/>
<path d="M2780 279 c0 -11 4 -18 10 -14 5 3 7 12 3 20 -7 21 -13 19 -13 -6z"/>
<path d="M2831 289 c-1 -9 7 -23 17 -30 15 -12 16 -12 6 1 -6 8 -14 22 -17 30
-5 13 -6 12 -6 -1z"/>
<path d="M2872 280 c0 -14 2 -19 5 -12 2 6 2 18 0 25 -3 6 -5 1 -5 -13z"/>
<path d="M2891 278 c-1 -21 4 -28 17 -28 11 0 13 3 6 8 -7 4 -14 16 -17 27 -4
15 -5 14 -6 -7z"/>
</g>
</svg>
