<?xml version="1.0" encoding="UTF-8"?>
<svg xmlns="http://www.w3.org/2000/svg" xmlns:xlink="http://www.w3.org/1999/xlink" width="128px" height="128px" viewBox="0 0 128 128" version="1.1">
<g id="surface1">
<path style=" stroke:none;fill-rule:nonzero;fill:rgb(100%,100%,100%);fill-opacity:1;" d="M 74.308594 128.085938 C 49.539062 128.085938 24.808594 128.085938 0.078125 128.085938 C 0.078125 85.417969 0.078125 42.75 0.078125 0.0859375 C 42.746094 0.0859375 85.414062 0.0859375 128.078125 0.0859375 C 128.078125 42.75 128.078125 85.417969 128.078125 128.085938 C 110.167969 128.085938 92.257812 128.085938 74.308594 128.085938 M 26.953125 88.363281 C 25.625 87.648438 24.296875 86.925781 22.960938 86.230469 C 22.207031 85.839844 21.820312 86.089844 21.71875 86.988281 C 21.710938 87.058594 21.691406 87.128906 21.695312 87.199219 C 21.722656 88.457031 21.554688 89.664062 21.15625 90.863281 C 20.902344 91.636719 21.09375 92.445312 21.621094 93.089844 C 22.160156 93.746094 22.835938 93.679688 23.234375 92.9375 C 23.398438 92.632812 23.523438 92.300781 23.632812 91.96875 C 23.773438 91.535156 23.878906 91.085938 24.003906 90.640625 C 24.621094 90.910156 25.214844 91.1875 25.816406 91.425781 C 26.980469 91.894531 28.164062 92.296875 29.425781 92.28125 C 30.515625 92.265625 30.832031 92.007812 31.097656 90.882812 C 31.613281 88.691406 31.433594 86.492188 31.121094 84.296875 C 31.011719 83.523438 30.839844 82.761719 30.699219 82 C 30.796875 82.105469 30.859375 82.230469 30.914062 82.355469 C 31.789062 84.394531 32.828125 86.332031 34.160156 88.074219 C 34.507812 88.527344 34.632812 89.023438 34.648438 89.597656 C 34.679688 90.671875 34.703125 91.753906 34.824219 92.820312 C 34.953125 93.984375 35.019531 95.128906 34.671875 96.265625 C 34.628906 96.414062 34.617188 96.570312 34.601562 96.726562 C 34.496094 97.644531 34.929688 98.300781 35.960938 98.683594 C 37.03125 99.082031 38.113281 99.445312 39.199219 99.800781 C 39.929688 100.039062 41.074219 99.570312 41.5 98.839844 C 41.253906 98.6875 41.007812 98.535156 40.765625 98.378906 C 40.097656 97.953125 39.402344 97.570312 38.777344 97.082031 C 38.160156 96.597656 37.84375 95.886719 37.910156 95.042969 C 38.015625 93.617188 38.160156 92.195312 38.261719 90.769531 C 38.320312 89.90625 38.441406 89.027344 38.335938 88.183594 C 38.082031 86.144531 37.59375 84.148438 36.820312 82.265625 C 36.097656 80.519531 35.253906 78.835938 34.480469 77.113281 C 34.339844 76.800781 34.191406 76.457031 34.175781 76.117188 C 34.101562 74.417969 34.074219 72.71875 34.03125 71.015625 C 34.027344 70.902344 34.046875 70.785156 34.058594 70.597656 C 34.449219 71.289062 34.777344 71.917969 35.152344 72.515625 C 35.804688 73.558594 36.425781 74.644531 37.375 75.425781 C 39.035156 76.785156 40.691406 78.144531 42.359375 79.488281 C 42.636719 79.710938 42.820312 79.96875 42.808594 80.324219 C 42.796875 80.550781 42.679688 80.773438 42.601562 80.996094 C 42.402344 81.5625 42.472656 81.761719 42.976562 82.050781 C 43.066406 82.101562 43.136719 82.195312 43.226562 82.25 C 44.03125 82.71875 44.488281 83.023438 45.292969 82.433594 C 45.71875 82.125 46.128906 81.789062 46.550781 81.472656 C 46.734375 81.339844 46.917969 81.195312 47.121094 81.109375 C 48.273438 80.617188 49.425781 80.132812 50.585938 79.664062 C 53.96875 78.304688 57.078125 76.472656 59.738281 73.804688 C 60.652344 72.886719 61.648438 72.058594 62.644531 71.238281 C 63.539062 70.5 64.007812 70.574219 64.796875 71.449219 C 64.878906 71.539062 64.960938 71.632812 65.027344 71.738281 C 66.347656 73.75 66.488281 75.921875 65.53125 78.09375 C 64.921875 79.480469 64.0625 80.742188 63.324219 82.066406 C 63.082031 82.5 62.835938 82.941406 62.652344 83.410156 C 62.15625 84.6875 62.214844 86.015625 62.453125 87.339844 C 62.542969 87.835938 62.523438 88.285156 62.226562 88.707031 C 62.023438 89 61.863281 89.332031 61.6875 89.648438 C 60.003906 92.621094 58.207031 95.503906 55.957031 98.03125 C 55.046875 99.058594 54.121094 100.03125 52.75 100.304688 C 52.21875 100.410156 51.699219 100.597656 51.164062 100.675781 C 48.371094 101.085938 45.777344 102.128906 43.324219 103.589844 C 41.652344 104.589844 40.003906 105.632812 38.34375 106.652344 C 37.007812 107.476562 37.097656 107.683594 35.410156 106.789062 C 34.054688 106.074219 33.523438 106.28125 33.082031 107.824219 C 32.546875 109.699219 31.847656 111.492188 31.113281 113.28125 C 30.875 113.859375 30.707031 114.480469 30.574219 115.097656 C 30.402344 115.890625 30.3125 116.699219 30.773438 117.4375 C 31.039062 117.863281 31.332031 117.949219 31.710938 117.644531 C 32.054688 117.367188 32.390625 117.050781 32.65625 116.6875 C 33.472656 115.574219 34.261719 114.4375 35.042969 113.292969 C 35.796875 112.199219 36.730469 111.414062 37.988281 111.078125 C 42.734375 109.804688 47.472656 108.507812 52.214844 107.226562 C 53.761719 106.808594 55.335938 106.5 56.851562 105.976562 C 59.566406 105.042969 61.894531 103.34375 64.113281 101.46875 C 67.023438 99.011719 69.605469 96.195312 72.035156 93.210938 C 72.246094 92.957031 72.394531 92.910156 72.695312 93.070312 C 76.671875 95.199219 80.65625 97.308594 84.640625 99.425781 C 86.695312 100.523438 86.765625 100.617188 87.46875 102.96875 C 87.472656 102.984375 87.476562 103 87.476562 103.011719 C 88.289062 106.171875 89.796875 108.882812 91.980469 111.179688 C 93.695312 112.988281 95.375 114.835938 97.082031 116.652344 C 97.457031 117.050781 97.636719 117.5 97.628906 118.054688 C 97.617188 118.59375 97.59375 119.132812 97.632812 119.667969 C 97.726562 120.933594 98.269531 121.445312 99.4375 121.371094 C 100.121094 121.328125 100.800781 121.191406 101.484375 121.15625 C 102.339844 121.109375 103.195312 121.082031 104.046875 121.121094 C 104.621094 121.152344 105.191406 121.347656 105.765625 121.40625 C 107.074219 121.542969 108.234375 121.214844 109.078125 120.035156 C 109.476562 119.472656 109.367188 119.128906 108.714844 118.992188 C 108.261719 118.894531 107.800781 118.863281 107.339844 118.808594 C 106.410156 118.699219 105.472656 118.664062 104.59375 118.246094 C 102.640625 117.3125 101.242188 115.734375 100.203125 113.792969 C 98.96875 111.488281 97.773438 109.148438 96.628906 106.789062 C 95.144531 103.726562 93.730469 100.621094 92.277344 97.542969 C 92.003906 96.964844 91.71875 96.378906 91.355469 95.863281 C 90.054688 94 88.410156 92.503906 86.730469 91.050781 C 83.636719 88.367188 80.332031 85.992188 77.003906 83.660156 C 76.332031 83.191406 76.171875 82.785156 76.339844 81.941406 C 76.46875 81.292969 76.640625 80.652344 76.769531 80 C 77.171875 78.007812 77.210938 75.980469 77.25 73.953125 C 77.253906 73.625 77.34375 73.285156 77.441406 72.96875 C 77.660156 72.242188 77.9375 71.535156 78.136719 70.804688 C 78.40625 69.824219 78.351562 68.886719 77.746094 68.019531 C 77.375 67.492188 77.082031 66.90625 76.695312 66.25 C 76.921875 66.328125 77.054688 66.375 77.1875 66.417969 C 79.234375 67.070312 81.277344 67.726562 83.320312 68.378906 C 84.621094 68.792969 85.820312 68.632812 86.980469 67.816406 C 89.246094 66.226562 91.550781 64.710938 93.824219 63.132812 C 94.332031 62.78125 94.851562 62.582031 95.445312 62.542969 C 97.242188 62.425781 98.8125 61.757812 100.03125 60.28125 C 100.21875 60.054688 100.375 59.78125 100.488281 59.503906 C 100.539062 59.382812 100.492188 59.09375 100.414062 59.054688 C 100.015625 58.863281 99.664062 58.566406 99.140625 58.855469 C 98.542969 59.179688 97.867188 59.339844 97.222656 59.574219 C 97.207031 59.535156 97.191406 59.492188 97.175781 59.453125 C 97.25 59.382812 97.335938 59.316406 97.402344 59.234375 C 97.574219 59.007812 97.765625 58.789062 97.890625 58.53125 C 97.9375 58.425781 97.847656 58.214844 97.769531 58.089844 C 97.734375 58.027344 97.5625 58.015625 97.476562 58.050781 C 96.675781 58.378906 95.890625 58.742188 95.085938 59.054688 C 94.289062 59.367188 93.511719 59.699219 92.90625 60.382812 C 92.671875 60.644531 92.394531 60.886719 92.097656 61.058594 C 89.914062 62.335938 87.660156 63.417969 85.253906 64.128906 C 84.664062 64.304688 84.164062 64.257812 83.628906 63.960938 C 81.964844 63.039062 80.292969 62.128906 78.605469 61.261719 C 77.121094 60.503906 75.589844 59.863281 73.917969 59.839844 C 73.164062 59.828125 72.402344 59.984375 71.652344 60.097656 C 71.078125 60.183594 70.777344 59.929688 70.820312 59.3125 C 70.859375 58.777344 71.097656 58.371094 71.570312 58.152344 C 71.847656 58.023438 72.140625 57.925781 72.40625 57.773438 C 72.957031 57.457031 73.175781 56.941406 73.058594 56.277344 C 72.996094 55.917969 72.902344 55.566406 72.84375 55.207031 C 72.757812 54.675781 72.496094 54.136719 73.050781 53.675781 C 73.285156 53.480469 73.191406 53.183594 72.929688 53.003906 C 72.78125 52.90625 72.636719 52.808594 72.496094 52.707031 C 72.039062 52.378906 71.710938 51.980469 71.648438 51.347656 C 71.613281 50.972656 71.476562 50.609375 71.371094 50.246094 C 71.199219 49.652344 70.96875 49.074219 70.851562 48.472656 C 70.644531 47.414062 70.054688 46.761719 69.128906 46.453125 C 67.488281 45.90625 65.875 46.117188 64.355469 46.890625 C 63.546875 47.300781 62.746094 47.664062 61.867188 47.828125 C 61.09375 47.976562 60.398438 48.304688 59.824219 48.875 C 58.230469 50.464844 57.40625 52.457031 57.269531 54.769531 C 57.210938 55.804688 57.480469 56.140625 58.417969 56.429688 C 58.660156 56.507812 58.765625 56.644531 58.738281 56.921875 C 58.710938 57.191406 58.695312 57.460938 58.707031 57.730469 C 58.765625 59.394531 59.859375 60.496094 61.40625 60.433594 C 62.039062 60.40625 62.671875 60.324219 63.304688 60.292969 C 63.882812 60.265625 64.464844 60.253906 65.046875 60.277344 C 65.335938 60.285156 65.660156 60.351562 65.730469 60.730469 C 65.800781 61.097656 65.652344 61.394531 65.351562 61.59375 C 65.203125 61.6875 65.058594 61.792969 64.90625 61.867188 C 64.078125 62.273438 63.261719 62.710938 62.414062 63.0625 C 61.675781 63.367188 61.070312 63.835938 60.550781 64.457031 C 60.304688 64.75 60.046875 65.039062 59.820312 65.351562 C 58.324219 67.425781 56.839844 69.507812 55.351562 71.585938 C 54.621094 72.605469 53.839844 73.550781 52.6875 74.054688 C 52.394531 74.179688 52.132812 74.378906 51.863281 74.5625 C 50.5 75.503906 49.144531 76.464844 47.761719 77.378906 C 47.355469 77.648438 46.878906 77.890625 46.414062 77.9375 C 45.652344 78.019531 44.890625 78.03125 44.230469 78.554688 C 43.941406 78.199219 43.679688 77.878906 43.421875 77.5625 C 42.363281 76.253906 41.355469 74.902344 40.234375 73.664062 C 39.457031 72.800781 38.765625 71.890625 38.097656 70.9375 C 37.171875 69.613281 36.191406 68.328125 35.191406 67.066406 C 34.515625 66.21875 33.605469 65.769531 32.574219 65.613281 C 32.453125 65.597656 32.3125 65.597656 32.230469 65.527344 C 32.109375 65.417969 31.988281 65.265625 31.953125 65.105469 C 31.9375 65.035156 32.097656 64.871094 32.210938 64.8125 C 33.5625 64.125 34.027344 63.082031 33.695312 61.519531 C 33.648438 61.285156 33.699219 61.023438 33.714844 60.777344 C 33.742188 60.375 33.832031 59.96875 33.800781 59.574219 C 33.757812 59.085938 33.488281 58.59375 33.539062 58.128906 C 33.648438 57.1875 33.226562 56.621094 32.585938 56.140625 C 30.984375 54.941406 28.074219 55.042969 26.523438 56.324219 C 26.035156 56.730469 25.8125 57.234375 25.792969 57.894531 C 25.773438 58.484375 25.707031 59.074219 25.613281 59.65625 C 25.515625 60.277344 25.582031 60.851562 25.898438 61.367188 C 26.175781 61.816406 26.492188 62.234375 26.789062 62.664062 C 26.953125 62.902344 27.136719 63.128906 27.277344 63.386719 C 27.636719 64.046875 27.515625 64.710938 26.917969 65.128906 C 26.597656 65.359375 26.207031 65.476562 25.84375 65.644531 C 25.410156 65.84375 24.949219 65.984375 24.546875 66.242188 C 22.988281 67.253906 21.511719 68.394531 20.492188 70.046875 C 19.195312 72.144531 19.304688 72.863281 20.5 74.710938 C 21.550781 76.332031 22.925781 77.621094 24.328125 78.878906 C 24.472656 79.011719 24.59375 79.226562 24.636719 79.425781 C 24.941406 80.816406 25.15625 82.230469 25.53125 83.597656 C 25.972656 85.191406 26.546875 86.746094 27.035156 88.351562 C 27.023438 88.359375 27.015625 88.371094 26.953125 88.363281 M 100.886719 78.191406 C 100.773438 79.769531 100.800781 81.328125 101.296875 82.851562 C 101.664062 83.984375 102.058594 85.121094 102.292969 86.292969 C 102.769531 88.683594 103.15625 91.097656 103.566406 93.503906 C 103.71875 94.390625 103.464844 95.164062 102.882812 95.800781 C 102.585938 96.125 102.285156 96.453125 101.945312 96.710938 C 100.835938 97.554688 99.703125 98.363281 98.585938 99.191406 C 98.152344 99.507812 98.140625 99.890625 98.578125 100.1875 C 99.941406 101.117188 101.367188 101.363281 102.84375 100.503906 C 104.050781 99.804688 105.242188 99.078125 106.4375 98.355469 C 106.925781 98.058594 107.210938 97.59375 107.144531 96.988281 C 107.070312 96.332031 106.90625 95.691406 106.792969 95.039062 C 106.71875 94.609375 106.574219 94.167969 106.621094 93.753906 C 106.855469 91.742188 107.160156 89.742188 107.410156 87.734375 C 107.636719 85.929688 107.554688 84.148438 106.921875 82.425781 C 106.851562 82.238281 106.820312 82.003906 106.855469 81.804688 C 107.210938 79.636719 107.816406 77.546875 108.585938 75.511719 C 108.640625 75.371094 108.738281 75.25 108.8125 75.121094 C 108.847656 75.132812 108.882812 75.144531 108.917969 75.15625 C 108.984375 75.902344 109.089844 76.644531 109.117188 77.394531 C 109.222656 80.253906 109.300781 83.117188 109.394531 85.980469 C 109.417969 86.6875 109.386719 87.410156 109.5 88.101562 C 109.945312 90.789062 110.4375 93.46875 110.914062 96.152344 C 111.046875 96.902344 111.242188 97.644531 111.332031 98.402344 C 111.496094 99.792969 110.878906 100.90625 110.082031 101.90625 C 109.433594 102.726562 108.707031 103.476562 108.03125 104.269531 C 107.792969 104.550781 107.574219 104.855469 107.382812 105.175781 C 107.203125 105.488281 107.277344 105.765625 107.574219 105.976562 C 108.789062 106.824219 111.140625 107.179688 112.433594 105.3125 C 112.929688 104.597656 113.445312 103.886719 114.023438 103.25 C 114.6875 102.511719 114.882812 101.675781 114.703125 100.714844 C 114.429688 99.25 114.308594 97.777344 114.359375 96.277344 C 114.402344 94.90625 114.363281 93.527344 114.421875 92.152344 C 114.484375 90.667969 114.546875 89.175781 114.730469 87.707031 C 115.09375 84.832031 115.542969 81.964844 115.949219 79.097656 C 116.179688 77.445312 116.394531 75.792969 116.621094 74.113281 C 117.089844 74.214844 117.304688 73.914062 117.40625 73.492188 C 117.496094 73.105469 117.554688 72.707031 117.632812 72.28125 C 118.035156 72.886719 118.167969 73.683594 117.972656 74.277344 C 117.859375 74.625 117.6875 74.957031 117.625 75.3125 C 117.589844 75.527344 117.652344 75.820312 117.773438 75.988281 C 117.9375 76.207031 118.199219 76.230469 118.445312 76.023438 C 118.941406 75.601562 119.484375 75.238281 119.9375 74.769531 C 120.191406 74.503906 120.382812 74.09375 120.460938 73.714844 C 120.703125 72.484375 120.484375 71.257812 120.253906 70.050781 C 120.117188 69.328125 120.125 68.660156 120.347656 67.945312 C 120.792969 66.523438 121.167969 65.078125 121.523438 63.628906 C 121.738281 62.757812 121.992188 61.875 121.828125 60.953125 C 121.535156 59.261719 120.847656 57.757812 119.863281 56.414062 C 117.804688 53.601562 115.132812 51.777344 111.9375 50.800781 C 111.578125 50.691406 111.222656 50.5625 110.777344 50.414062 C 110.980469 50.09375 111.113281 49.816406 111.304688 49.597656 C 111.550781 49.320312 111.84375 49.097656 112.109375 48.839844 C 113.808594 47.167969 113.980469 44.234375 112.445312 42.394531 C 110.824219 40.453125 108.269531 39.929688 105.941406 41.304688 C 105.464844 41.585938 105.105469 42.003906 104.984375 42.59375 C 104.894531 43.023438 104.683594 43.335938 104.351562 43.582031 C 104.179688 43.710938 104.019531 43.863281 103.863281 44.015625 C 103.429688 44.4375 103.433594 44.484375 103.785156 44.988281 C 103.863281 45.097656 103.941406 45.261719 103.921875 45.382812 C 103.871094 45.6875 103.769531 45.980469 103.679688 46.273438 C 103.398438 47.191406 103.382812 48.058594 103.921875 48.90625 C 104.128906 49.238281 104.183594 49.679688 104.339844 50.167969 C 104.101562 50.117188 103.972656 50.101562 103.855469 50.0625 C 101.894531 49.398438 99.933594 48.730469 97.976562 48.066406 C 97.472656 47.894531 97.050781 47.601562 96.691406 47.1875 C 95.457031 45.761719 94.203125 44.363281 92.992188 42.921875 C 91.894531 41.617188 90.773438 40.328125 89.96875 38.777344 C 89.894531 38.632812 89.792969 38.480469 89.664062 38.394531 C 89.546875 38.320312 89.347656 38.265625 89.238281 38.324219 C 89.136719 38.378906 89.027344 38.601562 89.046875 38.722656 C 89.105469 39.035156 89.234375 39.335938 89.339844 39.636719 C 89.402344 39.808594 89.476562 39.976562 89.542969 40.144531 C 89.507812 40.175781 89.472656 40.203125 89.4375 40.230469 C 88.675781 39.609375 87.730469 39.246094 87.195312 38.296875 C 87.054688 38.042969 86.867188 37.753906 86.539062 37.898438 C 85.96875 38.152344 85.867188 38.273438 86.035156 38.785156 C 86.386719 39.875 86.804688 40.941406 87.21875 42.007812 C 87.285156 42.175781 87.449219 42.320312 87.597656 42.425781 C 88.34375 42.960938 89.105469 43.46875 89.851562 44.003906 C 90.109375 44.191406 90.359375 44.414062 90.5625 44.667969 C 91.53125 45.867188 92.457031 47.105469 93.449219 48.285156 C 94.304688 49.300781 95.121094 50.417969 96.144531 51.207031 C 98.152344 52.757812 100.292969 54.117188 102.386719 55.542969 C 102.6875 55.746094 102.910156 55.980469 102.953125 56.355469 C 103.039062 57.042969 103.167969 57.734375 103.164062 58.417969 C 103.148438 60.121094 103.132812 61.824219 103 63.519531 C 102.839844 65.519531 102.636719 67.523438 102.316406 69.503906 C 101.851562 72.375 101.144531 75.199219 100.886719 78.191406 M 58.320312 25.835938 C 58.285156 25.644531 58.246094 25.449219 58.207031 25.257812 C 57.738281 22.785156 55.867188 21.300781 53.675781 21.710938 C 51.792969 22.058594 49.832031 23.707031 50.195312 26.449219 C 50.375 27.777344 50.949219 28.730469 52.167969 29.21875 C 52.480469 29.34375 52.757812 29.6875 52.953125 29.996094 C 53.152344 30.308594 53.234375 30.691406 53.707031 30.492188 C 53.761719 30.46875 53.851562 30.539062 53.921875 30.566406 C 54.128906 30.648438 54.328125 30.75 54.539062 30.804688 C 54.703125 30.851562 54.90625 30.777344 55.039062 30.859375 C 55.566406 31.175781 55.984375 30.964844 56.367188 30.589844 C 56.585938 30.375 56.769531 30.117188 56.992188 29.847656 C 57.390625 31.144531 57.777344 32.40625 58.160156 33.65625 C 57.554688 33.535156 57.007812 33.375 56.449219 33.320312 C 55.0625 33.179688 53.890625 33.574219 53.011719 34.851562 C 51.796875 36.625 51.011719 38.613281 50.417969 40.683594 C 50.050781 41.964844 49.386719 42.8125 48.203125 43.21875 C 47.984375 43.292969 47.773438 43.4375 47.597656 43.601562 C 47.332031 43.84375 47.320312 44.1875 47.601562 44.402344 C 47.835938 44.578125 48.144531 44.738281 48.421875 44.746094 C 49.382812 44.765625 50.347656 44.75 51.304688 44.679688 C 52.078125 44.621094 52.261719 44.449219 52.261719 43.632812 C 52.265625 41.957031 53.398438 40.988281 54.242188 39.707031 C 54.285156 41.8125 53.796875 43.523438 52.136719 44.652344 C 51.972656 44.769531 51.8125 44.898438 51.664062 45.039062 C 51.382812 45.292969 51.003906 45.550781 51.132812 45.992188 C 51.265625 46.457031 51.738281 46.527344 52.101562 46.453125 C 53.171875 46.246094 54.234375 45.980469 55.289062 45.691406 C 55.613281 45.605469 55.726562 45.261719 55.742188 44.914062 C 55.75 44.660156 55.714844 44.402344 55.734375 44.148438 C 55.746094 43.929688 55.742188 43.667969 55.847656 43.496094 C 56.839844 41.914062 57.851562 40.347656 58.832031 38.816406 C 59.410156 38.953125 59.910156 39.085938 60.414062 39.1875 C 61.753906 39.453125 63.085938 39.519531 64.378906 38.910156 C 65.820312 38.234375 66.613281 37.0625 66.710938 35.375 C 66.800781 33.808594 66.226562 32.484375 65.40625 31.242188 C 64.632812 30.078125 63.894531 28.886719 63.128906 27.691406 C 63.207031 27.65625 63.265625 27.625 63.324219 27.605469 C 65.335938 27.03125 67.347656 26.460938 69.359375 25.886719 C 69.582031 25.824219 69.71875 25.863281 69.894531 26.066406 C 70.09375 26.292969 70.390625 26.429688 70.664062 26.5625 C 70.757812 26.609375 70.90625 26.535156 71.097656 26.503906 C 70.921875 26.28125 70.8125 26.140625 70.636719 25.917969 C 71.035156 25.941406 71.324219 25.933594 71.609375 25.984375 C 71.882812 26.03125 72.109375 26.023438 72.238281 25.714844 C 72.367188 25.414062 72.429688 25.078125 72.164062 24.859375 C 71.902344 24.640625 71.589844 24.441406 71.273438 24.371094 C 70.816406 24.265625 70.332031 24.257812 69.855469 24.257812 C 67.292969 24.253906 64.734375 24.40625 62.191406 24.78125 C 60.886719 24.972656 59.574219 25.171875 58.320312 25.835938 M 85.703125 112.863281 C 82.125 114.46875 78.410156 115.5 74.5625 115.988281 C 71.375 116.394531 68.183594 116.398438 64.992188 116.011719 C 61.582031 115.601562 58.269531 114.757812 55.050781 113.476562 C 52.972656 112.648438 50.96875 111.640625 49.03125 110.476562 C 48.800781 110.339844 48.511719 110.238281 48.253906 110.253906 C 47.898438 110.277344 47.667969 110.558594 47.59375 110.941406 C 47.507812 111.367188 47.691406 111.707031 48.128906 111.972656 C 53.613281 115.300781 59.492188 117.28125 65.773438 117.890625 C 71.09375 118.402344 76.320312 117.875 81.460938 116.335938 C 84.125 115.539062 86.6875 114.464844 89.160156 113.148438 C 89.457031 112.988281 89.714844 112.800781 89.769531 112.421875 C 89.824219 112.078125 89.734375 111.777344 89.464844 111.554688 C 89.15625 111.300781 88.824219 111.339844 88.492188 111.5 C 87.582031 111.945312 86.671875 112.394531 85.703125 112.863281 M 96.710938 37.109375 C 98.136719 38.605469 99.5625 40.097656 100.984375 41.597656 C 101.371094 42.003906 101.828125 42.0625 102.183594 41.726562 C 102.554688 41.378906 102.574219 40.84375 102.222656 40.402344 C 102 40.121094 101.765625 39.851562 101.53125 39.582031 C 94.515625 31.628906 85.976562 26.792969 75.875 25.160156 C 75.335938 25.074219 74.921875 25.367188 74.84375 25.886719 C 74.769531 26.394531 75.050781 26.804688 75.570312 26.90625 C 76.207031 27.03125 76.851562 27.117188 77.484375 27.25 C 84.667969 28.746094 91.0625 32.023438 96.710938 37.109375 M 39.765625 37.441406 C 36.511719 40.734375 33.792969 44.476562 31.636719 48.679688 C 31.070312 49.78125 30.5625 50.917969 30.050781 52.054688 C 29.824219 52.554688 30.015625 53.0625 30.449219 53.269531 C 30.871094 53.472656 31.308594 53.292969 31.542969 52.8125 C 31.605469 52.6875 31.65625 52.558594 31.710938 52.429688 C 35.140625 44.597656 40.234375 38.328125 47.003906 33.621094 C 47.523438 33.257812 48.0625 32.925781 48.582031 32.570312 C 48.886719 32.359375 49.039062 32.050781 48.972656 31.660156 C 48.914062 31.296875 48.714844 30.996094 48.367188 30.96875 C 48.101562 30.949219 47.789062 31.023438 47.558594 31.167969 C 44.753906 32.929688 42.171875 35.007812 39.765625 37.441406 M 35.480469 17.359375 C 35.355469 17.828125 35.113281 18.300781 35.125 18.765625 C 35.164062 20.160156 35.796875 21.269531 36.902344 21.984375 C 38.28125 22.878906 40.230469 21.953125 40.578125 20.269531 C 40.816406 19.132812 40.414062 18.152344 39.78125 17.269531 C 38.601562 15.628906 36.6875 15.652344 35.480469 17.359375 M 19.921875 43.074219 C 19.238281 43.074219 18.554688 43.074219 17.855469 43.074219 C 17.835938 42.941406 17.816406 42.757812 17.773438 42.582031 C 17.578125 41.777344 17.03125 41.382812 16.328125 41.171875 C 15.671875 40.980469 15.109375 41.234375 14.757812 41.789062 C 14.210938 42.660156 13.757812 43.601562 13.253906 44.53125 C 15 45.503906 16.671875 46.433594 18.359375 47.371094 C 18.566406 46.945312 18.753906 46.558594 18.953125 46.148438 C 18.347656 45.804688 17.753906 45.472656 17.167969 45.140625 C 17.414062 44.445312 17.414062 44.445312 18.027344 44.441406 C 18.53125 44.4375 19.03125 44.441406 19.535156 44.425781 C 19.636719 44.421875 19.789062 44.378906 19.832031 44.300781 C 20.042969 43.914062 20.226562 43.511719 20.441406 43.070312 C 20.253906 43.070312 20.125 43.070312 19.921875 43.074219 M 15.820312 51.257812 C 15.628906 52.074219 15.246094 52.332031 14.480469 52.113281 C 14.097656 52.003906 13.730469 51.847656 13.359375 51.703125 C 12.585938 51.394531 11.8125 51.078125 11.007812 50.753906 C 10.847656 51.207031 10.703125 51.621094 10.554688 52.042969 C 10.925781 52.195312 11.253906 52.339844 11.589844 52.46875 C 12.507812 52.8125 13.410156 53.222656 14.351562 53.476562 C 15.476562 53.785156 16.3125 53.234375 16.761719 52.046875 C 17.226562 50.8125 17.019531 49.769531 15.976562 49.1875 C 14.761719 48.511719 13.457031 48.019531 12.175781 47.4375 C 12.003906 47.925781 11.867188 48.316406 11.71875 48.734375 C 12.035156 48.867188 12.328125 48.988281 12.621094 49.109375 C 13.433594 49.445312 14.25 49.769531 15.050781 50.128906 C 15.476562 50.320312 15.835938 50.609375 15.820312 51.257812 M 51.734375 14.019531 C 51.734375 14.535156 51.734375 15.050781 51.734375 15.59375 C 52.0625 15.5 52.378906 15.394531 52.699219 15.328125 C 52.917969 15.28125 52.964844 15.15625 52.957031 14.941406 C 52.945312 14.546875 52.957031 14.152344 52.957031 13.742188 C 53.523438 13.582031 54.066406 13.425781 54.625 13.269531 C 54.859375 13.714844 55.085938 14.140625 55.320312 14.578125 C 55.769531 14.445312 56.1875 14.324219 56.632812 14.191406 C 55.546875 12.347656 54.492188 10.558594 53.4375 8.765625 C 52.917969 8.917969 52.4375 9.058594 51.949219 9.199219 C 51.878906 10.796875 51.808594 12.367188 51.734375 14.019531 M 65.390625 9.203125 C 65.042969 9.230469 64.691406 9.253906 64.328125 9.28125 C 64.296875 8.851562 64.273438 8.476562 64.246094 8.058594 C 65.019531 8.003906 65.765625 7.949219 66.535156 7.890625 C 66.503906 7.488281 66.476562 7.125 66.445312 6.734375 C 65.253906 6.816406 64.085938 6.902344 62.886719 6.984375 C 63.007812 9.03125 63.128906 11.046875 63.25 13.101562 C 64.484375 13.015625 65.6875 12.933594 66.910156 12.847656 C 66.882812 12.433594 66.859375 12.074219 66.832031 11.695312 C 66.03125 11.746094 65.261719 11.792969 64.476562 11.84375 C 64.445312 11.351562 64.417969 10.917969 64.386719 10.449219 C 65.046875 10.398438 65.671875 10.351562 66.320312 10.300781 C 66.300781 9.894531 66.28125 9.539062 66.265625 9.199219 C 65.964844 9.199219 65.714844 9.199219 65.390625 9.203125 M 11.582031 64.203125 C 11.550781 64.085938 11.488281 63.960938 11.5 63.84375 C 11.5625 63.285156 11.644531 62.730469 11.726562 62.128906 C 11.363281 62.070312 11.023438 62.011719 10.660156 61.953125 C 10.558594 62.664062 10.460938 63.328125 10.363281 64.019531 C 9.972656 63.953125 9.617188 63.890625 9.246094 63.824219 C 9.359375 62.992188 9.460938 62.214844 9.570312 61.40625 C 9.191406 61.351562 8.855469 61.304688 8.5 61.25 C 8.324219 62.539062 8.152344 63.777344 7.976562 65.039062 C 9.890625 65.34375 11.746094 65.640625 13.625 65.9375 C 13.804688 64.621094 13.980469 63.351562 14.164062 62.050781 C 13.792969 61.992188 13.460938 61.9375 13.097656 61.878906 C 12.976562 62.722656 12.859375 63.542969 12.734375 64.382812 C 12.351562 64.328125 12 64.277344 11.582031 64.203125 M 29.167969 30.59375 C 28.929688 30.324219 28.6875 30.050781 28.429688 29.757812 C 27.851562 30.421875 27.320312 31.027344 26.78125 31.644531 C 26.445312 31.308594 26.144531 31 25.832031 30.683594 C 26.28125 30.160156 26.710938 29.664062 27.148438 29.15625 C 26.875 28.882812 26.628906 28.632812 26.359375 28.367188 C 25.910156 28.882812 25.476562 29.375 25.027344 29.886719 C 24.746094 29.605469 24.480469 29.339844 24.195312 29.054688 C 24.710938 28.457031 25.21875 27.867188 25.75 27.253906 C 25.46875 26.976562 25.214844 26.722656 24.953125 26.464844 C 24.121094 27.421875 23.324219 28.339844 22.515625 29.273438 C 23.921875 30.683594 25.300781 32.058594 26.695312 33.457031 C 27.519531 32.507812 28.328125 31.574219 29.167969 30.59375 M 12.402344 67.902344 C 11.457031 67.527344 10.710938 67.828125 10.253906 68.785156 C 10.046875 69.226562 9.867188 69.6875 9.660156 70.128906 C 9.542969 70.375 9.386719 70.609375 9.082031 70.53125 C 8.765625 70.449219 8.671875 70.164062 8.703125 69.871094 C 8.734375 69.539062 8.832031 69.214844 8.929688 68.898438 C 8.972656 68.746094 9.082031 68.617188 9.167969 68.472656 C 8.898438 68.222656 8.652344 67.996094 8.402344 67.765625 C 7.824219 68.359375 7.570312 69.058594 7.566406 69.851562 C 7.5625 70.863281 8.121094 71.71875 8.871094 71.90625 C 9.707031 72.117188 10.371094 71.699219 10.839844 70.675781 C 11.019531 70.28125 11.167969 69.863281 11.394531 69.503906 C 11.492188 69.34375 11.761719 69.195312 11.929688 69.21875 C 12.082031 69.238281 12.253906 69.484375 12.320312 69.667969 C 12.386719 69.851562 12.382812 70.105469 12.320312 70.289062 C 12.171875 70.722656 11.972656 71.132812 11.769531 71.601562 C 11.996094 71.816406 12.273438 72.085938 12.554688 72.363281 C 13.101562 71.773438 13.390625 71.09375 13.460938 70.328125 C 13.546875 69.339844 13.34375 68.464844 12.402344 67.902344 M 32.785156 25.207031 C 32.582031 25.238281 32.375 25.269531 32.140625 25.304688 C 32.140625 25.695312 32.140625 26.085938 32.140625 26.46875 C 33.300781 26.65625 34.667969 25.84375 35.09375 24.703125 C 35.34375 24.035156 35.277344 23.398438 34.835938 22.832031 C 34.414062 22.289062 33.875 22.109375 33.238281 22.28125 C 32.804688 22.398438 32.371094 22.527344 31.9375 22.648438 C 31.636719 22.734375 31.3125 22.84375 31.144531 22.445312 C 30.976562 22.046875 31.253906 21.816406 31.507812 21.605469 C 31.589844 21.535156 31.683594 21.46875 31.78125 21.4375 C 32.066406 21.34375 32.355469 21.269531 32.65625 21.1875 C 32.65625 20.84375 32.65625 20.492188 32.65625 20.148438 C 31.792969 19.980469 30.789062 20.449219 30.261719 21.253906 C 29.796875 21.960938 29.753906 22.777344 30.15625 23.402344 C 30.558594 24.027344 31.222656 24.257812 32.023438 24.046875 C 32.457031 23.929688 32.890625 23.796875 33.324219 23.6875 C 33.570312 23.621094 33.855469 23.636719 33.929688 23.921875 C 33.984375 24.128906 33.953125 24.480469 33.824219 24.597656 C 33.546875 24.855469 33.179688 25.003906 32.785156 25.207031 M 14.429688 59.015625 C 15.304688 57.96875 15.429688 56.558594 14.71875 55.578125 C 14.421875 55.734375 14.121094 55.890625 13.8125 56.050781 C 13.882812 56.222656 13.945312 56.363281 13.992188 56.507812 C 14.246094 57.308594 13.882812 58.132812 13.136719 58.320312 C 12.277344 58.539062 11.472656 58.339844 10.824219 57.675781 C 10.253906 57.089844 10.300781 56.210938 10.886719 55.644531 C 10.960938 55.574219 11.042969 55.503906 11.136719 55.410156 C 10.925781 55.101562 10.726562 54.8125 10.527344 54.519531 C 9.625 55.066406 9.144531 56.136719 9.308594 57.195312 C 9.503906 58.425781 10.214844 59.183594 11.277344 59.574219 C 12.390625 59.980469 13.460938 59.980469 14.429688 59.015625 M 41.789062 13.75 C 41.066406 15.1875 41.511719 17.195312 42.78125 18.195312 C 43.878906 19.0625 45.5 18.816406 46.320312 17.640625 C 46.492188 17.390625 46.605469 17.089844 46.75 16.796875 C 46.386719 16.617188 46.09375 16.46875 45.78125 16.316406 C 45.726562 16.433594 45.691406 16.523438 45.648438 16.605469 C 45.132812 17.628906 44.0625 17.753906 43.363281 16.859375 C 43 16.394531 42.765625 15.859375 42.710938 15.25 C 42.609375 14.140625 43.355469 13.429688 44.367188 13.667969 C 44.414062 13.679688 44.46875 13.683594 44.542969 13.691406 C 44.628906 13.332031 44.714844 12.984375 44.800781 12.640625 C 43.789062 12.117188 42.585938 12.550781 41.789062 13.75 M 20.589844 31.835938 C 19.878906 32.835938 19.167969 33.835938 18.441406 34.859375 C 18.738281 35.105469 19.007812 35.324219 19.296875 35.5625 C 19.625 35.109375 19.9375 34.679688 20.257812 34.234375 C 21.492188 35.246094 22.699219 36.230469 23.929688 37.238281 C 24.195312 36.859375 24.445312 36.503906 24.710938 36.132812 C 23.472656 35.117188 22.269531 34.132812 21.039062 33.125 C 21.367188 32.664062 21.671875 32.230469 21.988281 31.78125 C 21.683594 31.535156 21.414062 31.316406 21.125 31.085938 C 20.941406 31.339844 20.78125 31.5625 20.589844 31.835938 M 61.335938 12.167969 C 60.675781 12.277344 60.011719 12.382812 59.304688 12.5 C 59.070312 10.851562 58.835938 9.226562 58.597656 7.589844 C 58.152344 7.664062 57.753906 7.734375 57.324219 7.804688 C 57.617188 9.84375 57.902344 11.84375 58.1875 13.863281 C 59.394531 13.664062 60.535156 13.476562 61.683594 13.289062 C 61.652344 13.023438 61.644531 12.8125 61.597656 12.609375 C 61.558594 12.453125 61.472656 12.3125 61.335938 12.167969 M 49.808594 15.777344 C 49.214844 14.042969 48.625 12.308594 48.023438 10.542969 C 47.609375 10.707031 47.21875 10.863281 46.808594 11.027344 C 47.472656 12.960938 48.121094 14.863281 48.777344 16.777344 C 49.203125 16.609375 49.582031 16.457031 49.984375 16.292969 C 49.925781 16.125 49.878906 15.980469 49.808594 15.777344 M 18.75 37.710938 C 18.289062 37.390625 17.824219 37.074219 17.34375 36.742188 C 17.101562 37.148438 16.878906 37.523438 16.648438 37.910156 C 18.261719 39.023438 19.839844 40.117188 21.445312 41.226562 C 21.6875 40.828125 21.910156 40.449219 22.144531 40.058594 C 21.007812 39.273438 19.902344 38.511719 18.75 37.710938 M 22.707031 26.949219 C 22.707031 27.183594 22.707031 27.421875 22.707031 27.679688 C 22.988281 27.679688 23.257812 27.679688 23.539062 27.679688 C 23.648438 27.007812 23.757812 26.359375 23.867188 25.683594 C 23.492188 25.65625 23.15625 25.632812 22.796875 25.609375 C 22.765625 26.0625 22.738281 26.464844 22.707031 26.949219 M 7.628906 63.390625 C 7.746094 63.304688 7.859375 63.214844 7.988281 63.121094 C 7.71875 62.488281 7.457031 61.882812 7.195312 61.261719 C 6.863281 61.476562 6.578125 61.664062 6.277344 61.859375 C 6.617188 62.464844 6.929688 63.03125 7.261719 63.621094 C 7.378906 63.546875 7.480469 63.484375 7.628906 63.390625 Z M 7.628906 63.390625 "/>
<path style=" stroke:none;fill-rule:nonzero;fill:rgb(0.392157%,36.078432%,66.274512%);fill-opacity:1;" d="M 27.0625 88.320312 C 26.546875 86.746094 25.972656 85.191406 25.53125 83.597656 C 25.15625 82.230469 24.941406 80.816406 24.636719 79.425781 C 24.59375 79.226562 24.472656 79.011719 24.328125 78.878906 C 22.925781 77.621094 21.550781 76.332031 20.5 74.710938 C 19.304688 72.863281 19.195312 72.144531 20.492188 70.046875 C 21.511719 68.394531 22.988281 67.253906 24.546875 66.242188 C 24.949219 65.984375 25.410156 65.84375 25.84375 65.644531 C 26.207031 65.476562 26.597656 65.359375 26.917969 65.128906 C 27.515625 64.710938 27.636719 64.046875 27.277344 63.386719 C 27.136719 63.128906 26.953125 62.902344 26.789062 62.664062 C 26.492188 62.234375 26.175781 61.816406 25.898438 61.367188 C 25.582031 60.851562 25.515625 60.277344 25.613281 59.65625 C 25.707031 59.074219 25.773438 58.484375 25.792969 57.894531 C 25.8125 57.234375 26.035156 56.730469 26.523438 56.324219 C 28.074219 55.042969 30.984375 54.941406 32.585938 56.140625 C 33.226562 56.621094 33.648438 57.1875 33.539062 58.128906 C 33.488281 58.59375 33.757812 59.085938 33.800781 59.574219 C 33.832031 59.96875 33.742188 60.375 33.714844 60.777344 C 33.699219 61.023438 33.648438 61.285156 33.695312 61.519531 C 34.027344 63.082031 33.5625 64.125 32.210938 64.8125 C 32.097656 64.871094 31.9375 65.035156 31.953125 65.105469 C 31.988281 65.265625 32.109375 65.417969 32.230469 65.527344 C 32.3125 65.597656 32.453125 65.597656 32.574219 65.613281 C 33.605469 65.769531 34.515625 66.21875 35.191406 67.066406 C 36.191406 68.328125 37.171875 69.613281 38.097656 70.9375 C 38.765625 71.890625 39.457031 72.800781 40.234375 73.664062 C 41.355469 74.902344 42.363281 76.253906 43.421875 77.5625 C 43.679688 77.878906 43.941406 78.199219 44.230469 78.554688 C 44.890625 78.03125 45.652344 78.019531 46.414062 77.9375 C 46.878906 77.890625 47.355469 77.648438 47.761719 77.378906 C 49.144531 76.464844 50.5 75.503906 51.863281 74.5625 C 52.132812 74.378906 52.394531 74.179688 52.6875 74.054688 C 53.839844 73.550781 54.621094 72.605469 55.351562 71.585938 C 56.839844 69.507812 58.324219 67.425781 59.820312 65.351562 C 60.046875 65.039062 60.304688 64.75 60.550781 64.457031 C 61.070312 63.835938 61.675781 63.367188 62.414062 63.0625 C 63.261719 62.710938 64.078125 62.273438 64.90625 61.867188 C 65.058594 61.792969 65.203125 61.6875 65.351562 61.59375 C 65.652344 61.394531 65.800781 61.097656 65.730469 60.730469 C 65.660156 60.351562 65.335938 60.285156 65.046875 60.277344 C 64.464844 60.253906 63.882812 60.265625 63.304688 60.292969 C 62.671875 60.324219 62.039062 60.40625 61.40625 60.433594 C 59.859375 60.496094 58.765625 59.394531 58.707031 57.730469 C 58.695312 57.460938 58.710938 57.191406 58.738281 56.921875 C 58.765625 56.644531 58.660156 56.507812 58.417969 56.429688 C 57.480469 56.140625 57.210938 55.804688 57.269531 54.769531 C 57.40625 52.457031 58.230469 50.464844 59.824219 48.875 C 60.398438 48.304688 61.09375 47.976562 61.867188 47.828125 C 62.746094 47.664062 63.546875 47.300781 64.355469 46.890625 C 65.875 46.117188 67.488281 45.90625 69.128906 46.453125 C 70.054688 46.761719 70.644531 47.414062 70.851562 48.472656 C 70.96875 49.074219 71.199219 49.652344 71.371094 50.246094 C 71.476562 50.609375 71.613281 50.972656 71.648438 51.347656 C 71.710938 51.980469 72.039062 52.378906 72.496094 52.707031 C 72.636719 52.808594 72.78125 52.90625 72.929688 53.003906 C 73.191406 53.183594 73.285156 53.480469 73.050781 53.675781 C 72.496094 54.136719 72.757812 54.675781 72.84375 55.207031 C 72.902344 55.566406 72.996094 55.917969 73.058594 56.277344 C 73.175781 56.941406 72.957031 57.457031 72.40625 57.773438 C 72.140625 57.925781 71.847656 58.023438 71.570312 58.152344 C 71.097656 58.371094 70.859375 58.777344 70.820312 59.3125 C 70.777344 59.929688 71.078125 60.183594 71.652344 60.097656 C 72.402344 59.984375 73.164062 59.828125 73.917969 59.839844 C 75.589844 59.863281 77.121094 60.503906 78.605469 61.261719 C 80.292969 62.128906 81.964844 63.039062 83.628906 63.960938 C 84.164062 64.257812 84.664062 64.304688 85.253906 64.128906 C 87.660156 63.417969 89.914062 62.335938 92.097656 61.058594 C 92.394531 60.886719 92.671875 60.644531 92.90625 60.382812 C 93.511719 59.699219 94.289062 59.367188 95.085938 59.054688 C 95.890625 58.742188 96.675781 58.378906 97.476562 58.050781 C 97.5625 58.015625 97.734375 58.027344 97.769531 58.089844 C 97.847656 58.214844 97.9375 58.425781 97.890625 58.53125 C 97.765625 58.789062 97.574219 59.007812 97.402344 59.234375 C 97.335938 59.316406 97.25 59.382812 97.175781 59.453125 C 97.191406 59.492188 97.207031 59.535156 97.222656 59.574219 C 97.867188 59.339844 98.542969 59.179688 99.140625 58.855469 C 99.664062 58.566406 100.015625 58.863281 100.414062 59.054688 C 100.492188 59.09375 100.539062 59.382812 100.488281 59.503906 C 100.375 59.78125 100.21875 60.054688 100.03125 60.28125 C 98.8125 61.757812 97.242188 62.425781 95.445312 62.542969 C 94.851562 62.582031 94.332031 62.78125 93.824219 63.132812 C 91.550781 64.710938 89.246094 66.226562 86.980469 67.816406 C 85.820312 68.632812 84.621094 68.792969 83.320312 68.378906 C 81.277344 67.726562 79.234375 67.070312 77.1875 66.417969 C 77.054688 66.375 76.921875 66.328125 76.695312 66.25 C 77.082031 66.90625 77.375 67.492188 77.746094 68.019531 C 78.351562 68.886719 78.40625 69.824219 78.136719 70.804688 C 77.9375 71.535156 77.660156 72.242188 77.441406 72.96875 C 77.34375 73.285156 77.253906 73.625 77.25 73.953125 C 77.210938 75.980469 77.171875 78.007812 76.769531 80 C 76.640625 80.652344 76.46875 81.292969 76.339844 81.941406 C 76.171875 82.785156 76.332031 83.191406 77.003906 83.660156 C 80.332031 85.992188 83.636719 88.367188 86.730469 91.050781 C 88.410156 92.503906 90.054688 94 91.355469 95.863281 C 91.71875 96.378906 92.003906 96.964844 92.277344 97.542969 C 93.730469 100.621094 95.144531 103.726562 96.628906 106.789062 C 97.773438 109.148438 98.96875 111.488281 100.203125 113.792969 C 101.242188 115.734375 102.640625 117.3125 104.59375 118.246094 C 105.472656 118.664062 106.410156 118.699219 107.339844 118.808594 C 107.800781 118.863281 108.261719 118.894531 108.714844 118.992188 C 109.367188 119.128906 109.476562 119.472656 109.078125 120.035156 C 108.234375 121.214844 107.074219 121.542969 105.765625 121.40625 C 105.191406 121.347656 104.621094 121.152344 104.046875 121.121094 C 103.195312 121.082031 102.339844 121.109375 101.484375 121.15625 C 100.800781 121.191406 100.121094 121.328125 99.4375 121.371094 C 98.269531 121.445312 97.726562 120.933594 97.632812 119.667969 C 97.59375 119.132812 97.617188 118.59375 97.628906 118.054688 C 97.636719 117.5 97.457031 117.050781 97.082031 116.652344 C 95.375 114.835938 93.695312 112.988281 91.980469 111.179688 C 89.796875 108.882812 88.289062 106.171875 87.476562 103.011719 C 87.476562 103 87.472656 102.984375 87.46875 102.96875 C 86.765625 100.617188 86.695312 100.523438 84.640625 99.425781 C 80.65625 97.308594 76.671875 95.199219 72.695312 93.070312 C 72.394531 92.910156 72.246094 92.957031 72.035156 93.210938 C 69.605469 96.195312 67.023438 99.011719 64.113281 101.46875 C 61.894531 103.34375 59.566406 105.042969 56.851562 105.976562 C 55.335938 106.5 53.761719 106.808594 52.214844 107.226562 C 47.472656 108.507812 42.734375 109.804688 37.988281 111.078125 C 36.730469 111.414062 35.796875 112.199219 35.042969 113.292969 C 34.261719 114.4375 33.472656 115.574219 32.65625 116.6875 C 32.390625 117.050781 32.054688 117.367188 31.710938 117.644531 C 31.332031 117.949219 31.039062 117.863281 30.773438 117.4375 C 30.3125 116.699219 30.402344 115.890625 30.574219 115.097656 C 30.707031 114.480469 30.875 113.859375 31.113281 113.28125 C 31.847656 111.492188 32.546875 109.699219 33.082031 107.824219 C 33.523438 106.28125 34.054688 106.074219 35.410156 106.789062 C 37.097656 107.683594 37.007812 107.476562 38.34375 106.652344 C 40.003906 105.632812 41.652344 104.589844 43.324219 103.589844 C 45.777344 102.128906 48.371094 101.085938 51.164062 100.675781 C 51.699219 100.597656 52.21875 100.410156 52.75 100.304688 C 54.121094 100.03125 55.046875 99.058594 55.957031 98.03125 C 58.207031 95.503906 60.003906 92.621094 61.6875 89.648438 C 61.863281 89.332031 62.023438 89 62.226562 88.707031 C 62.523438 88.285156 62.542969 87.835938 62.453125 87.339844 C 62.214844 86.015625 62.15625 84.6875 62.652344 83.410156 C 62.835938 82.941406 63.082031 82.5 63.324219 82.066406 C 64.0625 80.742188 64.921875 79.480469 65.53125 78.09375 C 66.488281 75.921875 66.347656 73.75 65.027344 71.738281 C 64.960938 71.632812 64.878906 71.539062 64.796875 71.449219 C 64.007812 70.574219 63.539062 70.5 62.644531 71.238281 C 61.648438 72.058594 60.652344 72.886719 59.738281 73.804688 C 57.078125 76.472656 53.96875 78.304688 50.585938 79.664062 C 49.425781 80.132812 48.273438 80.617188 47.121094 81.109375 C 46.917969 81.195312 46.734375 81.339844 46.550781 81.472656 C 46.128906 81.789062 45.71875 82.125 45.292969 82.433594 C 44.488281 83.023438 44.03125 82.71875 43.226562 82.25 C 43.136719 82.195312 43.066406 82.101562 42.976562 82.050781 C 42.472656 81.761719 42.402344 81.5625 42.601562 80.996094 C 42.679688 80.773438 42.796875 80.550781 42.808594 80.324219 C 42.820312 79.96875 42.636719 79.710938 42.359375 79.488281 C 40.691406 78.144531 39.035156 76.785156 37.375 75.425781 C 36.425781 74.644531 35.804688 73.558594 35.152344 72.515625 C 34.777344 71.917969 34.449219 71.289062 34.058594 70.597656 C 34.046875 70.785156 34.027344 70.902344 34.03125 71.015625 C 34.074219 72.71875 34.101562 74.417969 34.175781 76.117188 C 34.191406 76.457031 34.339844 76.800781 34.480469 77.113281 C 35.253906 78.835938 36.097656 80.519531 36.820312 82.265625 C 37.59375 84.148438 38.082031 86.144531 38.335938 88.183594 C 38.441406 89.027344 38.320312 89.90625 38.261719 90.769531 C 38.160156 92.195312 38.015625 93.617188 37.910156 95.042969 C 37.84375 95.886719 38.160156 96.597656 38.777344 97.082031 C 39.402344 97.570312 40.097656 97.953125 40.765625 98.378906 C 41.007812 98.535156 41.253906 98.6875 41.5 98.839844 C 41.074219 99.570312 39.929688 100.039062 39.199219 99.800781 C 38.113281 99.445312 37.03125 99.082031 35.960938 98.683594 C 34.929688 98.300781 34.496094 97.644531 34.601562 96.726562 C 34.617188 96.570312 34.628906 96.414062 34.671875 96.265625 C 35.019531 95.128906 34.953125 93.984375 34.824219 92.820312 C 34.703125 91.753906 34.679688 90.671875 34.648438 89.597656 C 34.632812 89.023438 34.507812 88.527344 34.160156 88.074219 C 32.828125 86.332031 31.789062 84.394531 30.914062 82.355469 C 30.859375 82.230469 30.796875 82.105469 30.699219 82 C 30.839844 82.761719 31.011719 83.523438 31.121094 84.296875 C 31.433594 86.492188 31.613281 88.691406 31.097656 90.882812 C 30.832031 92.007812 30.515625 92.265625 29.425781 92.28125 C 28.164062 92.296875 26.980469 91.894531 25.816406 91.425781 C 25.214844 91.1875 24.621094 90.910156 24.003906 90.640625 C 23.878906 91.085938 23.773438 91.535156 23.632812 91.96875 C 23.523438 92.300781 23.398438 92.632812 23.234375 92.9375 C 22.835938 93.679688 22.160156 93.746094 21.621094 93.089844 C 21.09375 92.445312 20.902344 91.636719 21.15625 90.863281 C 21.554688 89.664062 21.722656 88.457031 21.695312 87.199219 C 21.691406 87.128906 21.710938 87.058594 21.71875 86.988281 C 21.820312 86.089844 22.207031 85.839844 22.960938 86.230469 C 24.296875 86.925781 25.625 87.648438 26.996094 88.382812 C 27.046875 88.378906 27.054688 88.347656 27.0625 88.320312 M 24.429688 70.527344 C 23.753906 70.738281 23.355469 71.308594 22.917969 71.835938 C 22.609375 72.210938 22.585938 72.550781 22.847656 72.964844 C 23.355469 73.789062 23.839844 74.632812 24.332031 75.46875 C 24.398438 75.574219 24.464844 75.683594 24.566406 75.851562 C 24.589844 75.375 24.621094 74.996094 24.628906 74.613281 C 24.65625 73.398438 24.683594 72.183594 24.691406 70.964844 C 24.691406 70.816406 24.558594 70.664062 24.429688 70.527344 Z M 24.429688 70.527344 "/>
<path style=" stroke:none;fill-rule:nonzero;fill:rgb(0.392157%,36.470589%,66.274512%);fill-opacity:1;" d="M 100.890625 78.152344 C 101.144531 75.199219 101.851562 72.375 102.316406 69.503906 C 102.636719 67.523438 102.839844 65.519531 103 63.519531 C 103.132812 61.824219 103.148438 60.121094 103.164062 58.417969 C 103.167969 57.734375 103.039062 57.042969 102.953125 56.355469 C 102.910156 55.980469 102.6875 55.746094 102.386719 55.542969 C 100.292969 54.117188 98.152344 52.757812 96.144531 51.207031 C 95.121094 50.417969 94.304688 49.300781 93.449219 48.285156 C 92.457031 47.105469 91.53125 45.867188 90.5625 44.667969 C 90.359375 44.414062 90.109375 44.191406 89.851562 44.003906 C 89.105469 43.46875 88.34375 42.960938 87.597656 42.425781 C 87.449219 42.320312 87.285156 42.175781 87.21875 42.007812 C 86.804688 40.941406 86.386719 39.875 86.035156 38.785156 C 85.867188 38.273438 85.96875 38.152344 86.539062 37.898438 C 86.867188 37.753906 87.054688 38.042969 87.195312 38.296875 C 87.730469 39.246094 88.675781 39.609375 89.4375 40.230469 C 89.472656 40.203125 89.507812 40.175781 89.542969 40.144531 C 89.476562 39.976562 89.402344 39.808594 89.339844 39.636719 C 89.234375 39.335938 89.105469 39.035156 89.046875 38.722656 C 89.027344 38.601562 89.136719 38.378906 89.238281 38.324219 C 89.347656 38.265625 89.546875 38.320312 89.664062 38.394531 C 89.792969 38.480469 89.894531 38.632812 89.96875 38.777344 C 90.773438 40.328125 91.894531 41.617188 92.992188 42.921875 C 94.203125 44.363281 95.457031 45.761719 96.691406 47.1875 C 97.050781 47.601562 97.472656 47.894531 97.976562 48.066406 C 99.933594 48.730469 101.894531 49.398438 103.855469 50.0625 C 103.972656 50.101562 104.101562 50.117188 104.339844 50.167969 C 104.183594 49.679688 104.128906 49.238281 103.921875 48.90625 C 103.382812 48.058594 103.398438 47.191406 103.679688 46.273438 C 103.769531 45.980469 103.871094 45.6875 103.921875 45.382812 C 103.941406 45.261719 103.863281 45.097656 103.785156 44.988281 C 103.433594 44.484375 103.429688 44.4375 103.863281 44.015625 C 104.019531 43.863281 104.179688 43.710938 104.351562 43.582031 C 104.683594 43.335938 104.894531 43.023438 104.984375 42.59375 C 105.105469 42.003906 105.464844 41.585938 105.941406 41.304688 C 108.269531 39.929688 110.824219 40.453125 112.445312 42.394531 C 113.980469 44.234375 113.808594 47.167969 112.109375 48.839844 C 111.84375 49.097656 111.550781 49.320312 111.304688 49.597656 C 111.113281 49.816406 110.980469 50.09375 110.777344 50.414062 C 111.222656 50.5625 111.578125 50.691406 111.9375 50.800781 C 115.132812 51.777344 117.804688 53.601562 119.863281 56.414062 C 120.847656 57.757812 121.535156 59.261719 121.828125 60.953125 C 121.992188 61.875 121.738281 62.757812 121.523438 63.628906 C 121.167969 65.078125 120.792969 66.523438 120.347656 67.945312 C 120.125 68.660156 120.117188 69.328125 120.253906 70.050781 C 120.484375 71.257812 120.703125 72.484375 120.460938 73.714844 C 120.382812 74.09375 120.191406 74.503906 119.9375 74.769531 C 119.484375 75.238281 118.941406 75.601562 118.445312 76.023438 C 118.199219 76.230469 117.9375 76.207031 117.773438 75.988281 C 117.652344 75.820312 117.589844 75.527344 117.625 75.3125 C 117.6875 74.957031 117.859375 74.625 117.972656 74.277344 C 118.167969 73.683594 118.035156 72.886719 117.632812 72.28125 C 117.554688 72.707031 117.496094 73.105469 117.40625 73.492188 C 117.304688 73.914062 117.089844 74.214844 116.621094 74.113281 C 116.394531 75.792969 116.179688 77.445312 115.949219 79.097656 C 115.542969 81.964844 115.09375 84.832031 114.730469 87.707031 C 114.546875 89.175781 114.484375 90.667969 114.421875 92.152344 C 114.363281 93.527344 114.402344 94.90625 114.359375 96.277344 C 114.308594 97.777344 114.429688 99.25 114.703125 100.714844 C 114.882812 101.675781 114.6875 102.511719 114.023438 103.25 C 113.445312 103.886719 112.929688 104.597656 112.433594 105.3125 C 111.140625 107.179688 108.789062 106.824219 107.574219 105.976562 C 107.277344 105.765625 107.203125 105.488281 107.382812 105.175781 C 107.574219 104.855469 107.792969 104.550781 108.03125 104.269531 C 108.707031 103.476562 109.433594 102.726562 110.082031 101.90625 C 110.878906 100.90625 111.496094 99.792969 111.332031 98.402344 C 111.242188 97.644531 111.046875 96.902344 110.914062 96.152344 C 110.4375 93.46875 109.945312 90.789062 109.5 88.101562 C 109.386719 87.410156 109.417969 86.6875 109.394531 85.980469 C 109.300781 83.117188 109.222656 80.253906 109.117188 77.394531 C 109.089844 76.644531 108.984375 75.902344 108.917969 75.15625 C 108.882812 75.144531 108.847656 75.132812 108.8125 75.121094 C 108.738281 75.25 108.640625 75.371094 108.585938 75.511719 C 107.816406 77.546875 107.210938 79.636719 106.855469 81.804688 C 106.820312 82.003906 106.851562 82.238281 106.921875 82.425781 C 107.554688 84.148438 107.636719 85.929688 107.410156 87.734375 C 107.160156 89.742188 106.855469 91.742188 106.621094 93.753906 C 106.574219 94.167969 106.71875 94.609375 106.792969 95.039062 C 106.90625 95.691406 107.070312 96.332031 107.144531 96.988281 C 107.210938 97.59375 106.925781 98.058594 106.4375 98.355469 C 105.242188 99.078125 104.050781 99.804688 102.84375 100.503906 C 101.367188 101.363281 99.941406 101.117188 98.578125 100.1875 C 98.140625 99.890625 98.152344 99.507812 98.585938 99.191406 C 99.703125 98.363281 100.835938 97.554688 101.945312 96.710938 C 102.285156 96.453125 102.585938 96.125 102.882812 95.800781 C 103.464844 95.164062 103.71875 94.390625 103.566406 93.503906 C 103.15625 91.097656 102.769531 88.683594 102.292969 86.292969 C 102.058594 85.121094 101.664062 83.984375 101.296875 82.851562 C 100.800781 81.328125 100.773438 79.769531 100.890625 78.152344 M 116.859375 71.273438 C 117.136719 70.4375 117.472656 69.613281 117.675781 68.753906 C 118.15625 66.71875 118.472656 64.652344 118.394531 62.535156 C 118.371094 61.863281 118.199219 61.226562 117.742188 60.757812 C 117 59.996094 116.214844 59.28125 115.4375 58.558594 C 115.222656 58.355469 115.070312 58.460938 115.042969 58.75 C 115.023438 58.902344 115.015625 59.0625 115.039062 59.214844 C 115.136719 59.902344 115.230469 60.585938 115.359375 61.265625 C 115.988281 64.589844 116.914062 67.867188 116.8125 71.339844 C 116.804688 71.347656 116.796875 71.355469 116.792969 71.363281 C 116.792969 71.363281 116.796875 71.363281 116.796875 71.363281 C 116.800781 71.34375 116.804688 71.324219 116.859375 71.273438 Z M 116.859375 71.273438 "/>
<path style=" stroke:none;fill-rule:nonzero;fill:rgb(0.392157%,36.470589%,66.274512%);fill-opacity:1;" d="M 58.351562 25.839844 C 59.574219 25.171875 60.886719 24.972656 62.191406 24.78125 C 64.734375 24.40625 67.292969 24.253906 69.855469 24.257812 C 70.332031 24.257812 70.816406 24.265625 71.273438 24.371094 C 71.589844 24.441406 71.902344 24.640625 72.164062 24.859375 C 72.429688 25.078125 72.367188 25.414062 72.238281 25.714844 C 72.109375 26.023438 71.882812 26.03125 71.609375 25.984375 C 71.324219 25.933594 71.035156 25.941406 70.636719 25.917969 C 70.8125 26.140625 70.921875 26.28125 71.097656 26.503906 C 70.90625 26.535156 70.757812 26.609375 70.664062 26.5625 C 70.390625 26.429688 70.09375 26.292969 69.894531 26.066406 C 69.71875 25.863281 69.582031 25.824219 69.359375 25.886719 C 67.347656 26.460938 65.335938 27.03125 63.324219 27.605469 C 63.265625 27.625 63.207031 27.65625 63.128906 27.691406 C 63.894531 28.886719 64.632812 30.078125 65.40625 31.242188 C 66.226562 32.484375 66.800781 33.808594 66.710938 35.375 C 66.613281 37.0625 65.820312 38.234375 64.378906 38.910156 C 63.085938 39.519531 61.753906 39.453125 60.414062 39.1875 C 59.910156 39.085938 59.410156 38.953125 58.832031 38.816406 C 57.851562 40.347656 56.839844 41.914062 55.847656 43.496094 C 55.742188 43.667969 55.746094 43.929688 55.734375 44.148438 C 55.714844 44.402344 55.75 44.660156 55.742188 44.914062 C 55.726562 45.261719 55.613281 45.605469 55.289062 45.691406 C 54.234375 45.980469 53.171875 46.246094 52.101562 46.453125 C 51.738281 46.527344 51.265625 46.457031 51.132812 45.992188 C 51.003906 45.550781 51.382812 45.292969 51.664062 45.039062 C 51.8125 44.898438 51.972656 44.769531 52.136719 44.652344 C 53.796875 43.523438 54.285156 41.8125 54.242188 39.707031 C 53.398438 40.988281 52.265625 41.957031 52.261719 43.632812 C 52.261719 44.449219 52.078125 44.621094 51.304688 44.679688 C 50.347656 44.75 49.382812 44.765625 48.421875 44.746094 C 48.144531 44.738281 47.835938 44.578125 47.601562 44.402344 C 47.320312 44.1875 47.332031 43.84375 47.597656 43.601562 C 47.773438 43.4375 47.984375 43.292969 48.203125 43.21875 C 49.386719 42.8125 50.050781 41.964844 50.417969 40.683594 C 51.011719 38.613281 51.796875 36.625 53.011719 34.851562 C 53.890625 33.574219 55.0625 33.179688 56.449219 33.320312 C 57.007812 33.375 57.554688 33.535156 58.160156 33.65625 C 57.777344 32.40625 57.390625 31.144531 56.992188 29.847656 C 56.769531 30.117188 56.585938 30.375 56.367188 30.589844 C 55.984375 30.964844 55.566406 31.175781 55.039062 30.859375 C 54.90625 30.777344 54.703125 30.851562 54.539062 30.804688 C 54.328125 30.75 54.128906 30.648438 53.921875 30.566406 C 53.851562 30.539062 53.761719 30.46875 53.707031 30.492188 C 53.234375 30.691406 53.152344 30.308594 52.953125 29.996094 C 52.757812 29.6875 52.480469 29.34375 52.167969 29.21875 C 50.949219 28.730469 50.375 27.777344 50.195312 26.449219 C 49.832031 23.707031 51.792969 22.058594 53.675781 21.710938 C 55.867188 21.300781 57.738281 22.785156 58.207031 25.257812 C 58.246094 25.449219 58.285156 25.644531 58.351562 25.839844 Z M 58.351562 25.839844 "/>
<path style=" stroke:none;fill-rule:nonzero;fill:rgb(1.568628%,36.862746%,66.666669%);fill-opacity:1;" d="M 85.730469 112.855469 C 86.671875 112.394531 87.582031 111.945312 88.492188 111.5 C 88.824219 111.339844 89.15625 111.300781 89.464844 111.554688 C 89.734375 111.777344 89.824219 112.078125 89.769531 112.421875 C 89.714844 112.800781 89.457031 112.988281 89.160156 113.148438 C 86.6875 114.464844 84.125 115.539062 81.460938 116.335938 C 76.320312 117.875 71.09375 118.402344 65.773438 117.890625 C 59.492188 117.28125 53.613281 115.300781 48.128906 111.972656 C 47.691406 111.707031 47.507812 111.367188 47.59375 110.941406 C 47.667969 110.558594 47.898438 110.277344 48.253906 110.253906 C 48.511719 110.238281 48.800781 110.339844 49.03125 110.476562 C 50.96875 111.640625 52.972656 112.648438 55.050781 113.476562 C 58.269531 114.757812 61.582031 115.601562 64.992188 116.011719 C 68.183594 116.398438 71.375 116.394531 74.5625 115.988281 C 78.410156 115.5 82.125 114.46875 85.730469 112.855469 Z M 85.730469 112.855469 "/>
<path style=" stroke:none;fill-rule:nonzero;fill:rgb(1.568628%,36.862746%,66.666669%);fill-opacity:1;" d="M 96.6875 37.089844 C 91.0625 32.023438 84.667969 28.746094 77.484375 27.25 C 76.851562 27.117188 76.207031 27.03125 75.570312 26.90625 C 75.050781 26.804688 74.769531 26.394531 74.84375 25.886719 C 74.921875 25.367188 75.335938 25.074219 75.875 25.160156 C 85.976562 26.792969 94.515625 31.628906 101.53125 39.582031 C 101.765625 39.851562 102 40.121094 102.222656 40.402344 C 102.574219 40.84375 102.554688 41.378906 102.183594 41.726562 C 101.828125 42.0625 101.371094 42.003906 100.984375 41.597656 C 99.5625 40.097656 98.136719 38.605469 96.6875 37.089844 Z M 96.6875 37.089844 "/>
<path style=" stroke:none;fill-rule:nonzero;fill:rgb(1.568628%,36.862746%,66.666669%);fill-opacity:1;" d="M 39.785156 37.417969 C 42.171875 35.007812 44.753906 32.929688 47.558594 31.167969 C 47.789062 31.023438 48.101562 30.949219 48.367188 30.96875 C 48.714844 30.996094 48.914062 31.296875 48.972656 31.660156 C 49.039062 32.050781 48.886719 32.359375 48.582031 32.570312 C 48.0625 32.925781 47.523438 33.257812 47.003906 33.621094 C 40.234375 38.328125 35.140625 44.597656 31.710938 52.429688 C 31.65625 52.558594 31.605469 52.6875 31.542969 52.8125 C 31.308594 53.292969 30.871094 53.472656 30.449219 53.269531 C 30.015625 53.0625 29.824219 52.554688 30.050781 52.054688 C 30.5625 50.917969 31.070312 49.78125 31.636719 48.679688 C 33.792969 44.476562 36.511719 40.734375 39.785156 37.417969 Z M 39.785156 37.417969 "/>
<path style=" stroke:none;fill-rule:nonzero;fill:rgb(1.960784%,36.862746%,66.666669%);fill-opacity:1;" d="M 35.496094 17.332031 C 36.6875 15.652344 38.601562 15.628906 39.78125 17.269531 C 40.414062 18.152344 40.816406 19.132812 40.578125 20.269531 C 40.230469 21.953125 38.28125 22.878906 36.902344 21.984375 C 35.796875 21.269531 35.164062 20.160156 35.125 18.765625 C 35.113281 18.300781 35.355469 17.828125 35.496094 17.332031 M 38.515625 17.859375 C 38.4375 17.78125 38.363281 17.699219 38.277344 17.632812 C 37.875 17.308594 37.441406 17.21875 36.984375 17.476562 C 36.523438 17.738281 36.332031 18.175781 36.398438 18.714844 C 36.507812 19.605469 36.921875 20.3125 37.59375 20.828125 C 37.976562 21.121094 38.40625 21.164062 38.824219 20.898438 C 39.246094 20.632812 39.394531 20.214844 39.355469 19.707031 C 39.300781 18.996094 38.980469 18.421875 38.515625 17.859375 Z M 38.515625 17.859375 "/>
<path style=" stroke:none;fill-rule:nonzero;fill:rgb(1.960784%,36.862746%,66.666669%);fill-opacity:1;" d="M 19.957031 43.070312 C 20.125 43.070312 20.253906 43.070312 20.441406 43.070312 C 20.226562 43.511719 20.042969 43.914062 19.832031 44.300781 C 19.789062 44.378906 19.636719 44.421875 19.535156 44.425781 C 19.03125 44.441406 18.53125 44.4375 18.027344 44.441406 C 17.414062 44.445312 17.414062 44.445312 17.167969 45.140625 C 17.753906 45.472656 18.347656 45.804688 18.953125 46.148438 C 18.753906 46.558594 18.566406 46.945312 18.359375 47.371094 C 16.671875 46.433594 15 45.503906 13.253906 44.53125 C 13.757812 43.601562 14.210938 42.660156 14.757812 41.789062 C 15.109375 41.234375 15.671875 40.980469 16.328125 41.171875 C 17.03125 41.382812 17.578125 41.777344 17.773438 42.582031 C 17.816406 42.757812 17.835938 42.941406 17.855469 43.074219 C 18.554688 43.074219 19.238281 43.074219 19.957031 43.070312 M 15.835938 44.410156 C 15.960938 44.476562 16.085938 44.539062 16.253906 44.625 C 16.40625 44.230469 16.574219 43.878906 16.671875 43.507812 C 16.78125 43.105469 16.597656 42.765625 16.238281 42.574219 C 15.878906 42.382812 15.589844 42.433594 15.34375 42.808594 C 15.132812 43.121094 14.976562 43.472656 14.789062 43.824219 C 15.15625 44.03125 15.46875 44.203125 15.835938 44.410156 Z M 15.835938 44.410156 "/>
<path style=" stroke:none;fill-rule:nonzero;fill:rgb(1.960784%,36.862746%,66.666669%);fill-opacity:1;" d="M 15.824219 51.222656 C 15.835938 50.609375 15.476562 50.320312 15.050781 50.128906 C 14.25 49.769531 13.433594 49.445312 12.621094 49.109375 C 12.328125 48.988281 12.035156 48.867188 11.71875 48.734375 C 11.867188 48.316406 12.003906 47.925781 12.175781 47.4375 C 13.457031 48.019531 14.761719 48.511719 15.976562 49.1875 C 17.019531 49.769531 17.226562 50.8125 16.761719 52.046875 C 16.3125 53.234375 15.476562 53.785156 14.351562 53.476562 C 13.410156 53.222656 12.507812 52.8125 11.589844 52.46875 C 11.253906 52.339844 10.925781 52.195312 10.554688 52.042969 C 10.703125 51.621094 10.847656 51.207031 11.007812 50.753906 C 11.8125 51.078125 12.585938 51.394531 13.359375 51.703125 C 13.730469 51.847656 14.097656 52.003906 14.480469 52.113281 C 15.246094 52.332031 15.628906 52.074219 15.824219 51.222656 Z M 15.824219 51.222656 "/>
<path style=" stroke:none;fill-rule:nonzero;fill:rgb(1.960784%,36.862746%,66.666669%);fill-opacity:1;" d="M 51.738281 13.980469 C 51.808594 12.367188 51.878906 10.796875 51.949219 9.199219 C 52.4375 9.058594 52.917969 8.917969 53.4375 8.765625 C 54.492188 10.558594 55.546875 12.347656 56.632812 14.191406 C 56.1875 14.324219 55.769531 14.445312 55.320312 14.578125 C 55.085938 14.140625 54.859375 13.714844 54.625 13.269531 C 54.066406 13.425781 53.523438 13.582031 52.957031 13.742188 C 52.957031 14.152344 52.945312 14.546875 52.957031 14.941406 C 52.964844 15.15625 52.917969 15.28125 52.699219 15.328125 C 52.378906 15.394531 52.0625 15.5 51.734375 15.59375 C 51.734375 15.050781 51.734375 14.535156 51.738281 13.980469 M 53.210938 12.554688 C 53.496094 12.472656 53.785156 12.386719 54.117188 12.292969 C 53.722656 11.53125 53.347656 10.804688 52.929688 9.996094 C 52.929688 10.867188 52.921875 11.632812 52.9375 12.402344 C 52.9375 12.460938 53.074219 12.519531 53.210938 12.554688 Z M 53.210938 12.554688 "/>
<path style=" stroke:none;fill-rule:nonzero;fill:rgb(1.960784%,37.254903%,66.666669%);fill-opacity:1;" d="M 65.425781 9.199219 C 65.714844 9.199219 65.964844 9.199219 66.265625 9.199219 C 66.28125 9.539062 66.300781 9.894531 66.320312 10.300781 C 65.671875 10.351562 65.046875 10.398438 64.386719 10.449219 C 64.417969 10.917969 64.445312 11.351562 64.476562 11.84375 C 65.261719 11.792969 66.03125 11.746094 66.832031 11.695312 C 66.859375 12.074219 66.882812 12.433594 66.910156 12.847656 C 65.6875 12.933594 64.484375 13.015625 63.25 13.101562 C 63.128906 11.046875 63.007812 9.03125 62.886719 6.984375 C 64.085938 6.902344 65.253906 6.816406 66.445312 6.734375 C 66.476562 7.125 66.503906 7.488281 66.535156 7.890625 C 65.765625 7.949219 65.019531 8.003906 64.246094 8.058594 C 64.273438 8.476562 64.296875 8.851562 64.328125 9.28125 C 64.691406 9.253906 65.042969 9.230469 65.425781 9.199219 Z M 65.425781 9.199219 "/>
<path style=" stroke:none;fill-rule:nonzero;fill:rgb(1.960784%,37.254903%,66.666669%);fill-opacity:1;" d="M 11.617188 64.214844 C 12 64.277344 12.351562 64.328125 12.734375 64.382812 C 12.859375 63.542969 12.976562 62.722656 13.097656 61.878906 C 13.460938 61.9375 13.792969 61.992188 14.164062 62.050781 C 13.980469 63.351562 13.804688 64.621094 13.625 65.9375 C 11.746094 65.640625 9.890625 65.34375 7.976562 65.039062 C 8.152344 63.777344 8.324219 62.539062 8.5 61.25 C 8.855469 61.304688 9.191406 61.351562 9.570312 61.40625 C 9.460938 62.214844 9.359375 62.992188 9.246094 63.824219 C 9.617188 63.890625 9.972656 63.953125 10.363281 64.019531 C 10.460938 63.328125 10.558594 62.664062 10.660156 61.953125 C 11.023438 62.011719 11.363281 62.070312 11.726562 62.128906 C 11.644531 62.730469 11.5625 63.285156 11.5 63.84375 C 11.488281 63.960938 11.550781 64.085938 11.617188 64.214844 Z M 11.617188 64.214844 "/>
<path style=" stroke:none;fill-rule:nonzero;fill:rgb(2.352941%,36.862746%,66.666669%);fill-opacity:1;" d="M 29.152344 30.617188 C 28.328125 31.574219 27.519531 32.507812 26.695312 33.457031 C 25.300781 32.058594 23.921875 30.683594 22.515625 29.273438 C 23.324219 28.339844 24.121094 27.421875 24.953125 26.464844 C 25.214844 26.722656 25.46875 26.976562 25.75 27.253906 C 25.21875 27.867188 24.710938 28.457031 24.195312 29.054688 C 24.480469 29.339844 24.746094 29.605469 25.027344 29.886719 C 25.476562 29.375 25.910156 28.882812 26.359375 28.367188 C 26.628906 28.632812 26.875 28.882812 27.148438 29.15625 C 26.710938 29.664062 26.28125 30.160156 25.832031 30.683594 C 26.144531 31 26.445312 31.308594 26.78125 31.644531 C 27.320312 31.027344 27.851562 30.421875 28.429688 29.757812 C 28.6875 30.050781 28.929688 30.324219 29.152344 30.617188 Z M 29.152344 30.617188 "/>
<path style=" stroke:none;fill-rule:nonzero;fill:rgb(1.960784%,36.862746%,66.666669%);fill-opacity:1;" d="M 12.433594 67.914062 C 13.34375 68.464844 13.546875 69.339844 13.460938 70.328125 C 13.390625 71.09375 13.101562 71.773438 12.554688 72.363281 C 12.273438 72.085938 11.996094 71.816406 11.769531 71.601562 C 11.972656 71.132812 12.171875 70.722656 12.320312 70.289062 C 12.382812 70.105469 12.386719 69.851562 12.320312 69.667969 C 12.253906 69.484375 12.082031 69.238281 11.929688 69.21875 C 11.761719 69.195312 11.492188 69.34375 11.394531 69.503906 C 11.167969 69.863281 11.019531 70.28125 10.839844 70.675781 C 10.371094 71.699219 9.707031 72.117188 8.871094 71.90625 C 8.121094 71.71875 7.5625 70.863281 7.566406 69.851562 C 7.570312 69.058594 7.824219 68.359375 8.402344 67.765625 C 8.652344 67.996094 8.898438 68.222656 9.167969 68.472656 C 9.082031 68.617188 8.972656 68.746094 8.929688 68.898438 C 8.832031 69.214844 8.734375 69.539062 8.703125 69.871094 C 8.671875 70.164062 8.765625 70.449219 9.082031 70.53125 C 9.386719 70.609375 9.542969 70.375 9.660156 70.128906 C 9.867188 69.6875 10.046875 69.226562 10.253906 68.785156 C 10.710938 67.828125 11.457031 67.527344 12.433594 67.914062 Z M 12.433594 67.914062 "/>
<path style=" stroke:none;fill-rule:nonzero;fill:rgb(1.960784%,36.862746%,66.666669%);fill-opacity:1;" d="M 32.820312 25.203125 C 33.179688 25.003906 33.546875 24.855469 33.824219 24.597656 C 33.953125 24.480469 33.984375 24.128906 33.929688 23.921875 C 33.855469 23.636719 33.570312 23.621094 33.324219 23.6875 C 32.890625 23.796875 32.457031 23.929688 32.023438 24.046875 C 31.222656 24.257812 30.558594 24.027344 30.15625 23.402344 C 29.753906 22.777344 29.796875 21.960938 30.261719 21.253906 C 30.789062 20.449219 31.792969 19.980469 32.65625 20.148438 C 32.65625 20.492188 32.65625 20.84375 32.65625 21.1875 C 32.355469 21.269531 32.066406 21.34375 31.78125 21.4375 C 31.683594 21.46875 31.589844 21.535156 31.507812 21.605469 C 31.253906 21.816406 30.976562 22.046875 31.144531 22.445312 C 31.3125 22.84375 31.636719 22.734375 31.9375 22.648438 C 32.371094 22.527344 32.804688 22.398438 33.238281 22.28125 C 33.875 22.109375 34.414062 22.289062 34.835938 22.832031 C 35.277344 23.398438 35.34375 24.035156 35.09375 24.703125 C 34.667969 25.84375 33.300781 26.65625 32.140625 26.46875 C 32.140625 26.085938 32.140625 25.695312 32.140625 25.304688 C 32.375 25.269531 32.582031 25.238281 32.820312 25.203125 Z M 32.820312 25.203125 "/>
<path style=" stroke:none;fill-rule:nonzero;fill:rgb(2.352941%,37.254903%,66.666669%);fill-opacity:1;" d="M 14.410156 59.039062 C 13.460938 59.980469 12.390625 59.980469 11.277344 59.574219 C 10.214844 59.183594 9.503906 58.425781 9.308594 57.195312 C 9.144531 56.136719 9.625 55.066406 10.527344 54.519531 C 10.726562 54.8125 10.925781 55.101562 11.136719 55.410156 C 11.042969 55.503906 10.960938 55.574219 10.886719 55.644531 C 10.300781 56.210938 10.253906 57.089844 10.824219 57.675781 C 11.472656 58.339844 12.277344 58.539062 13.136719 58.320312 C 13.882812 58.132812 14.246094 57.308594 13.992188 56.507812 C 13.945312 56.363281 13.882812 56.222656 13.8125 56.050781 C 14.121094 55.890625 14.421875 55.734375 14.71875 55.578125 C 15.429688 56.558594 15.304688 57.96875 14.410156 59.039062 Z M 14.410156 59.039062 "/>
<path style=" stroke:none;fill-rule:nonzero;fill:rgb(1.960784%,36.862746%,66.666669%);fill-opacity:1;" d="M 41.804688 13.722656 C 42.585938 12.550781 43.789062 12.117188 44.800781 12.640625 C 44.714844 12.984375 44.628906 13.332031 44.542969 13.691406 C 44.46875 13.683594 44.414062 13.679688 44.367188 13.667969 C 43.355469 13.429688 42.609375 14.140625 42.710938 15.25 C 42.765625 15.859375 43 16.394531 43.363281 16.859375 C 44.0625 17.753906 45.132812 17.628906 45.648438 16.605469 C 45.691406 16.523438 45.726562 16.433594 45.78125 16.316406 C 46.09375 16.46875 46.386719 16.617188 46.75 16.796875 C 46.605469 17.089844 46.492188 17.390625 46.320312 17.640625 C 45.5 18.816406 43.878906 19.0625 42.78125 18.195312 C 41.511719 17.195312 41.066406 15.1875 41.804688 13.722656 Z M 41.804688 13.722656 "/>
<path style=" stroke:none;fill-rule:nonzero;fill:rgb(2.352941%,36.862746%,66.666669%);fill-opacity:1;" d="M 20.605469 31.8125 C 20.78125 31.5625 20.941406 31.339844 21.125 31.085938 C 21.414062 31.316406 21.683594 31.535156 21.988281 31.78125 C 21.671875 32.230469 21.367188 32.664062 21.039062 33.125 C 22.269531 34.132812 23.472656 35.117188 24.710938 36.132812 C 24.445312 36.503906 24.195312 36.859375 23.929688 37.238281 C 22.699219 36.230469 21.492188 35.246094 20.257812 34.234375 C 19.9375 34.679688 19.625 35.109375 19.296875 35.5625 C 19.007812 35.324219 18.738281 35.105469 18.441406 34.859375 C 19.167969 33.835938 19.878906 32.835938 20.605469 31.8125 Z M 20.605469 31.8125 "/>
<path style=" stroke:none;fill-rule:nonzero;fill:rgb(1.960784%,37.254903%,66.666669%);fill-opacity:1;" d="M 61.371094 12.167969 C 61.472656 12.3125 61.558594 12.453125 61.597656 12.609375 C 61.644531 12.8125 61.652344 13.023438 61.683594 13.289062 C 60.535156 13.476562 59.394531 13.664062 58.1875 13.863281 C 57.902344 11.84375 57.617188 9.84375 57.324219 7.804688 C 57.753906 7.734375 58.152344 7.664062 58.597656 7.589844 C 58.835938 9.226562 59.070312 10.851562 59.304688 12.5 C 60.011719 12.382812 60.675781 12.277344 61.371094 12.167969 Z M 61.371094 12.167969 "/>
<path style=" stroke:none;fill-rule:nonzero;fill:rgb(1.960784%,37.254903%,66.666669%);fill-opacity:1;" d="M 49.816406 15.808594 C 49.878906 15.980469 49.925781 16.125 49.984375 16.292969 C 49.582031 16.457031 49.203125 16.609375 48.777344 16.777344 C 48.121094 14.863281 47.472656 12.960938 46.808594 11.027344 C 47.21875 10.863281 47.609375 10.707031 48.023438 10.542969 C 48.625 12.308594 49.214844 14.042969 49.816406 15.808594 Z M 49.816406 15.808594 "/>
<path style=" stroke:none;fill-rule:nonzero;fill:rgb(2.352941%,37.254903%,66.666669%);fill-opacity:1;" d="M 18.773438 37.726562 C 19.902344 38.511719 21.007812 39.273438 22.144531 40.058594 C 21.910156 40.449219 21.6875 40.828125 21.445312 41.226562 C 19.839844 40.117188 18.261719 39.023438 16.648438 37.910156 C 16.878906 37.523438 17.101562 37.148438 17.34375 36.742188 C 17.824219 37.074219 18.289062 37.390625 18.773438 37.726562 Z M 18.773438 37.726562 "/>
<path style=" stroke:none;fill-rule:nonzero;fill:rgb(3.529412%,38.039216%,67.058825%);fill-opacity:1;" d="M 22.707031 26.910156 C 22.738281 26.464844 22.765625 26.0625 22.796875 25.609375 C 23.15625 25.632812 23.492188 25.65625 23.867188 25.683594 C 23.757812 26.359375 23.648438 27.007812 23.539062 27.679688 C 23.257812 27.679688 22.988281 27.679688 22.707031 27.679688 C 22.707031 27.421875 22.707031 27.183594 22.707031 26.910156 Z M 22.707031 26.910156 "/>
<path style=" stroke:none;fill-rule:nonzero;fill:rgb(3.529412%,38.039216%,67.058825%);fill-opacity:1;" d="M 7.605469 63.40625 C 7.480469 63.484375 7.378906 63.546875 7.261719 63.621094 C 6.929688 63.03125 6.617188 62.464844 6.277344 61.859375 C 6.578125 61.664062 6.863281 61.476562 7.195312 61.261719 C 7.457031 61.882812 7.71875 62.488281 7.988281 63.121094 C 7.859375 63.214844 7.746094 63.304688 7.605469 63.40625 Z M 7.605469 63.40625 "/>
<path style=" stroke:none;fill-rule:nonzero;fill:rgb(97.254902%,98.431373%,98.823529%);fill-opacity:1;" d="M 24.457031 70.519531 C 24.558594 70.664062 24.691406 70.816406 24.691406 70.964844 C 24.683594 72.183594 24.65625 73.398438 24.628906 74.613281 C 24.621094 74.996094 24.589844 75.375 24.566406 75.851562 C 24.464844 75.683594 24.398438 75.574219 24.332031 75.46875 C 23.839844 74.632812 23.355469 73.789062 22.847656 72.964844 C 22.585938 72.550781 22.609375 72.210938 22.917969 71.835938 C 23.355469 71.308594 23.753906 70.738281 24.457031 70.519531 Z M 24.457031 70.519531 "/>
<path style=" stroke:none;fill-rule:nonzero;fill:rgb(100%,100%,100%);fill-opacity:1;" d="M 27.046875 88.335938 C 27.054688 88.347656 27.046875 88.378906 27.023438 88.394531 C 27.015625 88.371094 27.023438 88.359375 27.046875 88.335938 Z M 27.046875 88.335938 "/>
<path style=" stroke:none;fill-rule:nonzero;fill:rgb(98.431373%,99.215686%,99.215686%);fill-opacity:1;" d="M 116.816406 71.3125 C 116.914062 67.867188 115.988281 64.589844 115.359375 61.265625 C 115.230469 60.585938 115.136719 59.902344 115.039062 59.214844 C 115.015625 59.0625 115.023438 58.902344 115.042969 58.75 C 115.070312 58.460938 115.222656 58.355469 115.4375 58.558594 C 116.214844 59.28125 117 59.996094 117.742188 60.757812 C 118.199219 61.226562 118.371094 61.863281 118.394531 62.535156 C 118.472656 64.652344 118.15625 66.71875 117.675781 68.753906 C 117.472656 69.613281 117.136719 70.4375 116.835938 71.292969 C 116.8125 71.308594 116.816406 71.3125 116.816406 71.3125 Z M 116.816406 71.3125 "/>
<path style=" stroke:none;fill-rule:nonzero;fill:rgb(98.431373%,99.215686%,99.215686%);fill-opacity:1;" d="M 116.8125 71.308594 C 116.804688 71.324219 116.800781 71.34375 116.796875 71.363281 C 116.796875 71.363281 116.792969 71.363281 116.792969 71.363281 C 116.796875 71.355469 116.804688 71.347656 116.8125 71.324219 C 116.816406 71.3125 116.8125 71.308594 116.8125 71.308594 Z M 116.8125 71.308594 "/>
<path style=" stroke:none;fill-rule:nonzero;fill:rgb(98.431373%,99.215686%,99.215686%);fill-opacity:1;" d="M 38.535156 17.878906 C 38.980469 18.421875 39.300781 18.996094 39.355469 19.707031 C 39.394531 20.214844 39.246094 20.632812 38.824219 20.898438 C 38.40625 21.164062 37.976562 21.121094 37.59375 20.828125 C 36.921875 20.3125 36.507812 19.605469 36.398438 18.714844 C 36.332031 18.175781 36.523438 17.738281 36.984375 17.476562 C 37.441406 17.21875 37.875 17.308594 38.277344 17.632812 C 38.363281 17.699219 38.4375 17.78125 38.535156 17.878906 Z M 38.535156 17.878906 "/>
<path style=" stroke:none;fill-rule:nonzero;fill:rgb(97.254902%,98.431373%,98.823529%);fill-opacity:1;" d="M 15.808594 44.394531 C 15.46875 44.203125 15.15625 44.03125 14.789062 43.824219 C 14.976562 43.472656 15.132812 43.121094 15.34375 42.808594 C 15.589844 42.433594 15.878906 42.382812 16.238281 42.574219 C 16.597656 42.765625 16.78125 43.105469 16.671875 43.507812 C 16.574219 43.878906 16.40625 44.230469 16.253906 44.625 C 16.085938 44.539062 15.960938 44.476562 15.808594 44.394531 Z M 15.808594 44.394531 "/>
<path style=" stroke:none;fill-rule:nonzero;fill:rgb(92.941177%,95.686275%,97.254902%);fill-opacity:1;" d="M 53.179688 12.566406 C 53.074219 12.519531 52.9375 12.460938 52.9375 12.402344 C 52.921875 11.632812 52.929688 10.867188 52.929688 9.996094 C 53.347656 10.804688 53.722656 11.53125 54.117188 12.292969 C 53.785156 12.386719 53.496094 12.472656 53.179688 12.566406 Z M 53.179688 12.566406 "/>
</g>
</svg>
